<?xml version="1.0" encoding="UTF-8" standalone="no"?>
<svg width="45px" height="65px" viewBox="0 0 45 65" version="1.1" xmlns="http://www.w3.org/2000/svg" xmlns:xlink="http://www.w3.org/1999/xlink">
    <!-- Generator: Sketch 3.8.3 (29802) - http://www.bohemiancoding.com/sketch -->
    <title>bewertung-info-blaugrau</title>
    <desc>Created with Sketch.</desc>
    <defs></defs>
    <g id="Page-1" stroke="none" stroke-width="1" fill="none" fill-rule="evenodd">
        <g id="bewertung-info-blaugrau" fill="#C4D4DA">
            <path d="M28.34375,54.734375 L38.421875,54.734375 C40.5781358,54.734375 42.1093705,55.1249961 43.015625,55.90625 C43.9218795,56.6875039 44.375,57.9843659 44.375,59.796875 C44.375,61.6406342 43.9140671,62.9687459 42.9921875,63.78125 C42.0703079,64.5937541 40.5468856,65 38.421875,65 L6.734375,65 C4.60936437,65 3.08594211,64.5937541 2.1640625,63.78125 C1.24218289,62.9687459 0.78125,61.6406342 0.78125,59.796875 C0.78125,57.9843659 1.22655805,56.6875039 2.1171875,55.90625 C3.00781695,55.1249961 4.54686406,54.734375 6.734375,54.734375 L16.8125,54.734375 L16.8125,31.953125 L11.515625,31.953125 C9.42186453,31.953125 7.92187953,31.5546915 7.015625,30.7578125 C6.10937047,29.9609335 5.65625,28.6406342 5.65625,26.796875 C5.65625,24.9531158 6.09374562,23.6406289 6.96875,22.859375 C7.84375438,22.0781211 9.35936422,21.6875 11.515625,21.6875 L25.625,21.6875 C26.5000044,21.6875 27.1718727,21.8671857 27.640625,22.2265625 C28.1093773,22.5859393 28.34375,23.0781219 28.34375,23.703125 L28.34375,54.734375 Z" id="Path-1"></path>
            <path d="M21.59375,0.5 C23.8750114,0.5 25.3906212,0.937495625 26.140625,1.8125 C26.8906288,2.68750438 27.265625,4.78123344 27.265625,8.09375 C27.265625,11.2812659 26.9296909,13.2578087 26.2578125,14.0234375 C25.5859341,14.7890663 24.0000125,15.171875 21.5,15.171875 C19.0624878,15.171875 17.492191,14.8125036 16.7890625,14.09375 C16.085934,13.3749964 15.734375,11.9375108 15.734375,9.78125 C15.734375,5.78123 16.0937464,3.23438047 16.8125,2.140625 C17.5312536,1.04686953 19.1249877,0.5 21.59375,0.5 L21.59375,0.5 Z" id="Path"></path>
        </g>
    </g>
</svg>