<?xml version="1.0" encoding="UTF-8"?>
<!DOCTYPE svg PUBLIC "-//W3C//DTD SVG 1.1//EN" "http://www.w3.org/Graphics/SVG/1.1/DTD/svg11.dtd">
<svg width="60px" height="15px" viewBox="0 0 60 15" version="1.1" xmlns="http://www.w3.org/2000/svg" xmlns:xlink="http://www.w3.org/1999/xlink" xml:space="preserve" style="fill-rule:evenodd;clip-rule:evenodd;stroke-linejoin:round;stroke-miterlimit:1.41421;">
    <g transform="matrix(1,0,0,1,-125,-10)">
        <g transform="matrix(1.2,5.71502e-17,6.33438e-17,1.07143,125,10)">
            <path d="M50,3.5C50,1.568 48.6,0 46.875,0L0,0L0,10.5C0,12.432 1.4,14 3.125,14L46.875,14C48.6,14 50,12.432 50,10.5L50,3.5Z" style="fill:rgb(141,178,67);"/>
        </g>
        <g transform="matrix(1.02232,0,0,1.02232,110.914,11.8956)">
            <path d="M22.007,7.814C22.265,7.814 22.478,7.793 22.647,7.749C22.815,7.706 22.95,7.648 23.052,7.573C23.153,7.499 23.224,7.411 23.263,7.309C23.302,7.208 23.322,7.094 23.322,6.969C23.322,6.703 23.196,6.482 22.946,6.306C22.696,6.13 22.265,5.94 21.655,5.736C21.389,5.642 21.123,5.535 20.857,5.414C20.591,5.292 20.352,5.14 20.141,4.956C19.929,4.772 19.757,4.549 19.624,4.287C19.491,4.025 19.425,3.706 19.425,3.33C19.425,2.954 19.495,2.616 19.636,2.315C19.777,2.013 19.976,1.757 20.234,1.546C20.493,1.335 20.806,1.172 21.174,1.059C21.541,0.945 21.956,0.889 22.418,0.889C22.966,0.889 23.439,0.947 23.838,1.065C24.237,1.182 24.566,1.311 24.824,1.452L24.296,2.896C24.069,2.778 23.817,2.675 23.539,2.585C23.261,2.495 22.926,2.45 22.535,2.45C22.097,2.45 21.782,2.51 21.59,2.632C21.399,2.753 21.303,2.939 21.303,3.189C21.303,3.338 21.338,3.463 21.408,3.565C21.479,3.667 21.578,3.759 21.708,3.841C21.837,3.923 21.985,3.997 22.154,4.064C22.322,4.13 22.508,4.199 22.711,4.269C23.134,4.426 23.502,4.58 23.815,4.733C24.128,4.885 24.388,5.063 24.595,5.267C24.803,5.47 24.957,5.709 25.059,5.983C25.161,6.257 25.211,6.589 25.211,6.981C25.211,7.74 24.945,8.329 24.413,8.747C23.881,9.166 23.079,9.375 22.007,9.375C21.647,9.375 21.322,9.354 21.033,9.311C20.743,9.268 20.487,9.215 20.264,9.152C20.041,9.09 19.849,9.023 19.689,8.953C19.528,8.882 19.393,8.816 19.284,8.753L19.8,7.298C20.043,7.431 20.342,7.55 20.698,7.656C21.054,7.761 21.49,7.814 22.007,7.814Z" style="fill:white;fill-rule:nonzero;"/>
            <path d="M30.458,6.171C30.458,5.631 30.337,5.198 30.094,4.874C29.852,4.549 29.492,4.387 29.015,4.387C28.858,4.387 28.713,4.392 28.58,4.404C28.447,4.416 28.338,4.43 28.252,4.445L28.252,7.603C28.361,7.673 28.504,7.732 28.68,7.779C28.856,7.826 29.034,7.849 29.214,7.849C30.044,7.849 30.458,7.29 30.458,6.171ZM32.243,6.124C32.243,6.601 32.184,7.035 32.066,7.427C31.949,7.818 31.777,8.154 31.55,8.436C31.323,8.718 31.041,8.937 30.705,9.093C30.368,9.25 29.981,9.328 29.543,9.328C29.3,9.328 29.073,9.305 28.862,9.258C28.651,9.211 28.447,9.144 28.252,9.058L28.252,11.382L26.503,11.382L26.503,3.248C26.659,3.201 26.839,3.156 27.043,3.113C27.246,3.07 27.459,3.033 27.682,3.001C27.905,2.97 28.132,2.945 28.363,2.925C28.594,2.906 28.815,2.896 29.026,2.896C29.535,2.896 29.989,2.972 30.388,3.125C30.787,3.277 31.123,3.492 31.397,3.77C31.671,4.048 31.881,4.387 32.025,4.786C32.17,5.185 32.243,5.631 32.243,6.124Z" style="fill:white;fill-rule:nonzero;"/>
            <path d="M33.299,6.171C33.299,5.623 33.383,5.144 33.551,4.733C33.72,4.322 33.941,3.98 34.215,3.706C34.488,3.432 34.803,3.224 35.159,3.084C35.515,2.943 35.881,2.872 36.257,2.872C37.133,2.872 37.826,3.14 38.335,3.676C38.843,4.212 39.098,5.001 39.098,6.042C39.098,6.143 39.094,6.255 39.086,6.376C39.078,6.497 39.07,6.605 39.062,6.699L35.095,6.699C35.134,7.059 35.302,7.345 35.6,7.556C35.897,7.767 36.296,7.873 36.797,7.873C37.118,7.873 37.433,7.843 37.742,7.785C38.051,7.726 38.303,7.654 38.499,7.568L38.734,8.988C38.64,9.035 38.515,9.082 38.358,9.129C38.202,9.176 38.027,9.217 37.836,9.252C37.644,9.287 37.439,9.317 37.219,9.34C37,9.363 36.781,9.375 36.562,9.375C36.007,9.375 35.523,9.293 35.112,9.129C34.702,8.964 34.361,8.739 34.091,8.454C33.821,8.168 33.622,7.83 33.493,7.438C33.363,7.047 33.299,6.625 33.299,6.171ZM37.407,5.502C37.399,5.353 37.374,5.208 37.331,5.067C37.288,4.926 37.221,4.801 37.131,4.692C37.041,4.582 36.928,4.492 36.791,4.422C36.654,4.351 36.484,4.316 36.28,4.316C36.085,4.316 35.917,4.349 35.776,4.416C35.635,4.482 35.517,4.57 35.424,4.68C35.33,4.79 35.257,4.917 35.206,5.061C35.156,5.206 35.118,5.353 35.095,5.502L37.407,5.502Z" style="fill:white;fill-rule:nonzero;"/>
            <path d="M40.447,3.248C40.745,3.162 41.128,3.082 41.598,3.007C42.067,2.933 42.56,2.896 43.077,2.896C43.601,2.896 44.037,2.964 44.386,3.101C44.734,3.238 45.01,3.432 45.213,3.682C45.417,3.933 45.561,4.23 45.647,4.574C45.733,4.919 45.776,5.302 45.776,5.725L45.776,9.211L44.028,9.211L44.028,5.936C44.028,5.373 43.953,4.973 43.805,4.739C43.656,4.504 43.378,4.387 42.971,4.387C42.846,4.387 42.713,4.392 42.572,4.404C42.431,4.416 42.306,4.43 42.196,4.445L42.196,9.211L40.447,9.211L40.447,3.248Z" style="fill:white;fill-rule:nonzero;"/>
            <path d="M48.852,6.077C48.852,6.617 48.973,7.051 49.216,7.38C49.458,7.708 49.818,7.873 50.296,7.873C50.452,7.873 50.597,7.867 50.73,7.855C50.863,7.843 50.973,7.83 51.059,7.814L51.059,4.633C50.949,4.563 50.806,4.504 50.63,4.457C50.454,4.41 50.276,4.387 50.096,4.387C49.267,4.387 48.852,4.95 48.852,6.077ZM52.808,9.011C52.651,9.058 52.471,9.103 52.268,9.146C52.064,9.189 51.851,9.227 51.628,9.258C51.405,9.289 51.178,9.315 50.947,9.334C50.716,9.354 50.495,9.363 50.284,9.363C49.775,9.363 49.321,9.289 48.922,9.14C48.523,8.992 48.187,8.779 47.913,8.501C47.639,8.223 47.43,7.886 47.285,7.491C47.14,7.096 47.068,6.652 47.068,6.159C47.068,5.658 47.13,5.206 47.255,4.803C47.381,4.4 47.561,4.058 47.795,3.776C48.03,3.494 48.318,3.279 48.658,3.131C48.999,2.982 49.388,2.908 49.826,2.908C50.069,2.908 50.286,2.931 50.478,2.978C50.669,3.025 50.863,3.091 51.059,3.177L51.059,0.384L52.808,0.102L52.808,9.011Z" style="fill:white;fill-rule:nonzero;"/>
            <path d="M54.157,6.171C54.157,5.623 54.242,5.144 54.41,4.733C54.578,4.322 54.799,3.98 55.073,3.706C55.347,3.432 55.662,3.224 56.018,3.084C56.374,2.943 56.74,2.872 57.115,2.872C57.992,2.872 58.684,3.14 59.193,3.676C59.702,4.212 59.956,5.001 59.956,6.042C59.956,6.143 59.952,6.255 59.944,6.376C59.937,6.497 59.929,6.605 59.921,6.699L55.953,6.699C55.993,7.059 56.161,7.345 56.458,7.556C56.755,7.767 57.155,7.873 57.655,7.873C57.976,7.873 58.291,7.843 58.6,7.785C58.909,7.726 59.162,7.654 59.357,7.568L59.592,8.988C59.498,9.035 59.373,9.082 59.217,9.129C59.06,9.176 58.886,9.217 58.694,9.252C58.503,9.287 58.297,9.317 58.078,9.34C57.859,9.363 57.64,9.375 57.421,9.375C56.865,9.375 56.382,9.293 55.971,9.129C55.56,8.964 55.22,8.739 54.95,8.454C54.68,8.168 54.48,7.83 54.351,7.438C54.222,7.047 54.157,6.625 54.157,6.171ZM58.266,5.502C58.258,5.353 58.233,5.208 58.189,5.067C58.146,4.926 58.08,4.801 57.99,4.692C57.9,4.582 57.786,4.492 57.65,4.422C57.513,4.351 57.342,4.316 57.139,4.316C56.943,4.316 56.775,4.349 56.634,4.416C56.493,4.482 56.376,4.57 56.282,4.68C56.188,4.79 56.116,4.917 56.065,5.061C56.014,5.206 55.977,5.353 55.953,5.502L58.266,5.502Z" style="fill:white;fill-rule:nonzero;"/>
            <path d="M61.306,3.248C61.603,3.162 61.987,3.082 62.456,3.007C62.926,2.933 63.419,2.896 63.935,2.896C64.46,2.896 64.896,2.964 65.244,3.101C65.592,3.238 65.868,3.432 66.072,3.682C66.275,3.933 66.42,4.23 66.506,4.574C66.592,4.919 66.635,5.302 66.635,5.725L66.635,9.211L64.886,9.211L64.886,5.936C64.886,5.373 64.812,4.973 64.663,4.739C64.514,4.504 64.237,4.387 63.83,4.387C63.704,4.387 63.571,4.392 63.431,4.404C63.29,4.416 63.164,4.43 63.055,4.445L63.055,9.211L61.306,9.211L61.306,3.248Z" style="fill:white;fill-rule:nonzero;"/>
        </g>
    </g>
</svg>
