<?xml version="1.0" encoding="UTF-8"?>
<!DOCTYPE svg PUBLIC "-//W3C//DTD SVG 1.1//EN" "http://www.w3.org/Graphics/SVG/1.1/DTD/svg11.dtd">
<svg width="50px" height="15px" viewBox="0 0 50 15" version="1.1" xmlns="http://www.w3.org/2000/svg" xmlns:xlink="http://www.w3.org/1999/xlink" xml:space="preserve" style="fill-rule:evenodd;clip-rule:evenodd;stroke-linejoin:round;stroke-miterlimit:1.41421;">
    <g transform="matrix(1,0,0,1,-10,-10)">
        <g transform="matrix(1,0,0,1.07143,10,10)">
            <path d="M50,3.5C50,1.568 48.32,0 46.25,0L0,0L0,10.5C0,12.432 1.68,14 3.75,14L46.25,14C48.32,14 50,12.432 50,10.5L50,3.5Z" style="fill:rgb(223,108,32);"/>
        </g>
        <g transform="matrix(0.121918,0,5.54668e-33,0.121918,-40.5992,-45.9095)">
            <path d="M505.885,557.012C505.883,540.969 499.406,526.518 488.9,515.998C478.378,505.487 463.926,499.014 447.881,499.008L447.881,483.239C488.631,483.242 521.652,516.263 521.658,557.011L505.885,557.011L505.885,557.012ZM469.568,546.146C469.568,540.146 464.704,535.285 458.704,535.285C452.703,535.285 447.837,540.146 447.837,546.146C447.837,552.15 452.703,557.012 458.704,557.012C464.704,557.012 469.568,552.149 469.568,546.146ZM482.34,557.01C482.335,547.484 478.501,538.932 472.262,532.678C466.009,526.441 457.457,522.602 447.926,522.6L447.926,506.829C461.761,506.825 474.359,512.458 483.412,521.527C492.479,530.583 498.115,543.178 498.111,557.01L482.34,557.01Z" style="fill:white;"/>
        </g>
        <g transform="matrix(1.02232,0,0,1.02232,5.86197,12.4034)">
            <path d="M25.235,9.211C25.149,8.929 25.053,8.64 24.947,8.342C24.842,8.045 24.738,7.748 24.636,7.45L21.467,7.45C21.365,7.748 21.262,8.045 21.156,8.342C21.05,8.64 20.954,8.929 20.868,9.211L18.967,9.211C19.272,8.334 19.562,7.524 19.835,6.781C20.109,6.038 20.377,5.337 20.639,4.68C20.902,4.023 21.16,3.399 21.414,2.808C21.668,2.217 21.933,1.64 22.206,1.076L23.955,1.076C24.222,1.64 24.484,2.217 24.742,2.808C25,3.399 25.26,4.023 25.522,4.68C25.785,5.337 26.053,6.038 26.327,6.781C26.6,7.524 26.89,8.334 27.195,9.211L25.235,9.211ZM23.04,2.919C23.001,3.037 22.942,3.197 22.864,3.401C22.786,3.604 22.696,3.839 22.594,4.105C22.492,4.371 22.381,4.664 22.259,4.985C22.138,5.306 22.015,5.642 21.89,5.995L24.202,5.995C24.077,5.642 23.955,5.306 23.838,4.985C23.721,4.664 23.609,4.371 23.504,4.105C23.398,3.839 23.306,3.604 23.228,3.401C23.149,3.197 23.087,3.037 23.04,2.919Z" style="fill:white;fill-rule:nonzero;"/>
            <path d="M27.958,1.499L29.707,1.217L29.707,3.037L31.808,3.037L31.808,4.492L29.707,4.492L29.707,6.664C29.707,7.031 29.772,7.325 29.901,7.544C30.03,7.763 30.29,7.873 30.681,7.873C30.869,7.873 31.063,7.855 31.262,7.82C31.462,7.785 31.644,7.736 31.808,7.673L32.055,9.035C31.843,9.121 31.609,9.195 31.35,9.258C31.092,9.32 30.775,9.352 30.4,9.352C29.922,9.352 29.527,9.287 29.214,9.158C28.901,9.029 28.651,8.849 28.463,8.618C28.275,8.387 28.144,8.107 28.07,7.779C27.995,7.45 27.958,7.086 27.958,6.687L27.958,1.499Z" style="fill:white;fill-rule:nonzero;"/>
            <path d="M38.651,6.112C38.651,6.597 38.581,7.041 38.44,7.444C38.299,7.847 38.096,8.192 37.83,8.477C37.564,8.763 37.245,8.984 36.873,9.14C36.501,9.297 36.085,9.375 35.623,9.375C35.169,9.375 34.756,9.297 34.385,9.14C34.013,8.984 33.694,8.763 33.428,8.477C33.162,8.192 32.955,7.847 32.806,7.444C32.657,7.041 32.583,6.597 32.583,6.112C32.583,5.627 32.659,5.185 32.812,4.786C32.964,4.387 33.176,4.046 33.446,3.764C33.716,3.483 34.036,3.264 34.408,3.107C34.78,2.951 35.185,2.872 35.623,2.872C36.069,2.872 36.478,2.951 36.85,3.107C37.221,3.264 37.54,3.483 37.806,3.764C38.072,4.046 38.28,4.387 38.428,4.786C38.577,5.185 38.651,5.627 38.651,6.112ZM36.867,6.112C36.867,5.572 36.76,5.148 36.545,4.838C36.329,4.529 36.022,4.375 35.623,4.375C35.224,4.375 34.915,4.529 34.696,4.838C34.477,5.148 34.367,5.572 34.367,6.112C34.367,6.652 34.477,7.08 34.696,7.397C34.915,7.714 35.224,7.873 35.623,7.873C36.022,7.873 36.329,7.714 36.545,7.397C36.76,7.08 36.867,6.652 36.867,6.112Z" style="fill:white;fill-rule:nonzero;"/>
            <path d="M43.276,5.936C43.276,5.373 43.204,4.973 43.059,4.739C42.914,4.504 42.666,4.387 42.314,4.387C42.204,4.387 42.091,4.392 41.973,4.404C41.856,4.416 41.743,4.43 41.633,4.445L41.633,9.211L39.884,9.211L39.884,3.248C40.033,3.209 40.207,3.168 40.406,3.125C40.606,3.082 40.817,3.043 41.04,3.007C41.263,2.972 41.492,2.945 41.727,2.925C41.962,2.906 42.192,2.896 42.419,2.896C42.865,2.896 43.227,2.953 43.505,3.066C43.783,3.179 44.012,3.314 44.192,3.471C44.442,3.291 44.73,3.15 45.055,3.048C45.379,2.947 45.679,2.896 45.953,2.896C46.446,2.896 46.851,2.964 47.167,3.101C47.484,3.238 47.737,3.432 47.925,3.682C48.112,3.933 48.241,4.23 48.312,4.574C48.382,4.919 48.418,5.302 48.418,5.725L48.418,9.211L46.669,9.211L46.669,5.936C46.669,5.373 46.596,4.973 46.451,4.739C46.307,4.504 46.058,4.387 45.706,4.387C45.612,4.387 45.481,4.41 45.313,4.457C45.145,4.504 45.006,4.563 44.896,4.633C44.951,4.813 44.986,5.003 45.002,5.202C45.017,5.402 45.025,5.615 45.025,5.842L45.025,9.211L43.276,9.211L43.276,5.936Z" style="fill:white;fill-rule:nonzero;"/>
        </g>
    </g>
</svg>
