<?xml version="1.0" encoding="UTF-8"?>
<!DOCTYPE svg PUBLIC "-//W3C//DTD SVG 1.1//EN" "http://www.w3.org/Graphics/SVG/1.1/DTD/svg11.dtd">
<svg width="45px" height="15px" viewBox="0 0 45 15" version="1.1" xmlns="http://www.w3.org/2000/svg" xmlns:xlink="http://www.w3.org/1999/xlink" xml:space="preserve" style="fill-rule:evenodd;clip-rule:evenodd;stroke-linejoin:round;stroke-miterlimit:1.41421;">
    <g transform="matrix(1,0,0,1,-70,-10)">
        <g transform="matrix(0.9,-2.44929e-17,-2.62424e-17,1.07143,70,10)">
            <path d="M50,3.5C50,1.568 48.133,0 45.833,0L0,0L0,10.5C0,12.432 1.867,14 4.167,14L45.833,14C48.133,14 50,12.432 50,10.5L50,3.5Z" style="fill:rgb(223,108,32);"/>
        </g>
        <g transform="matrix(0.121918,0,5.54668e-33,0.121918,19.4048,-45.9095)">
            <path d="M505.885,557.012C505.883,540.969 499.406,526.518 488.9,515.998C478.378,505.487 463.926,499.014 447.881,499.008L447.881,483.239C488.631,483.242 521.652,516.263 521.658,557.011L505.885,557.011L505.885,557.012ZM469.568,546.146C469.568,540.146 464.704,535.285 458.704,535.285C452.703,535.285 447.837,540.146 447.837,546.146C447.837,552.15 452.703,557.012 458.704,557.012C464.704,557.012 469.568,552.149 469.568,546.146ZM482.34,557.01C482.335,547.484 478.501,538.932 472.262,532.678C466.009,526.441 457.457,522.602 447.926,522.6L447.926,506.829C461.761,506.825 474.359,512.458 483.412,521.527C492.479,530.583 498.115,543.178 498.111,557.01L482.34,557.01Z" style="fill:white;"/>
        </g>
        <g transform="matrix(1.02232,0,0,1.02232,66.734,12.4034)">
            <path d="M22.171,0.982C23.392,0.982 24.327,1.2 24.977,1.634C25.626,2.068 25.951,2.743 25.951,3.659C25.951,4.23 25.82,4.694 25.558,5.05C25.296,5.406 24.918,5.686 24.425,5.889C24.589,6.092 24.761,6.325 24.941,6.587C25.121,6.85 25.299,7.123 25.476,7.409C25.652,7.695 25.822,7.992 25.986,8.301C26.15,8.61 26.303,8.913 26.444,9.211L24.39,9.211C24.241,8.945 24.09,8.675 23.938,8.401C23.785,8.127 23.629,7.861 23.468,7.603C23.308,7.345 23.149,7.1 22.993,6.869C22.836,6.638 22.68,6.429 22.523,6.241L21.62,6.241L21.62,9.211L19.788,9.211L19.788,1.194C20.188,1.116 20.6,1.061 21.027,1.029C21.453,0.998 21.835,0.982 22.171,0.982ZM22.277,2.544C22.144,2.544 22.025,2.548 21.919,2.555C21.813,2.563 21.713,2.571 21.62,2.579L21.62,4.786L22.136,4.786C22.825,4.786 23.318,4.7 23.615,4.527C23.912,4.355 24.061,4.062 24.061,3.647C24.061,3.248 23.91,2.964 23.609,2.796C23.308,2.628 22.864,2.544 22.277,2.544Z" style="fill:white;fill-rule:nonzero;"/>
            <path d="M30.775,7.814C31.033,7.814 31.247,7.793 31.415,7.749C31.583,7.706 31.718,7.648 31.82,7.573C31.922,7.499 31.992,7.411 32.031,7.309C32.07,7.208 32.09,7.094 32.09,6.969C32.09,6.703 31.965,6.482 31.714,6.306C31.464,6.13 31.033,5.94 30.423,5.736C30.157,5.642 29.891,5.535 29.625,5.414C29.359,5.292 29.12,5.14 28.909,4.956C28.698,4.772 28.525,4.549 28.392,4.287C28.259,4.025 28.193,3.706 28.193,3.33C28.193,2.954 28.263,2.616 28.404,2.315C28.545,2.013 28.745,1.757 29.003,1.546C29.261,1.335 29.574,1.172 29.942,1.059C30.31,0.945 30.724,0.889 31.186,0.889C31.734,0.889 32.207,0.947 32.606,1.065C33.005,1.182 33.334,1.311 33.592,1.452L33.064,2.896C32.837,2.778 32.585,2.675 32.307,2.585C32.029,2.495 31.695,2.45 31.303,2.45C30.865,2.45 30.55,2.51 30.359,2.632C30.167,2.753 30.071,2.939 30.071,3.189C30.071,3.338 30.106,3.463 30.177,3.565C30.247,3.667 30.347,3.759 30.476,3.841C30.605,3.923 30.754,3.997 30.922,4.064C31.09,4.13 31.276,4.199 31.48,4.269C31.902,4.426 32.27,4.58 32.583,4.733C32.896,4.885 33.156,5.063 33.363,5.267C33.571,5.47 33.725,5.709 33.827,5.983C33.929,6.257 33.98,6.589 33.98,6.981C33.98,7.74 33.714,8.329 33.182,8.747C32.649,9.166 31.847,9.375 30.775,9.375C30.415,9.375 30.091,9.354 29.801,9.311C29.511,9.268 29.255,9.215 29.032,9.152C28.809,9.09 28.617,9.023 28.457,8.953C28.297,8.882 28.162,8.816 28.052,8.753L28.569,7.298C28.811,7.431 29.11,7.55 29.466,7.656C29.823,7.761 30.259,7.814 30.775,7.814Z" style="fill:white;fill-rule:nonzero;"/>
            <path d="M38.546,7.814C38.804,7.814 39.017,7.793 39.186,7.749C39.354,7.706 39.489,7.648 39.591,7.573C39.692,7.499 39.763,7.411 39.802,7.309C39.841,7.208 39.861,7.094 39.861,6.969C39.861,6.703 39.735,6.482 39.485,6.306C39.234,6.13 38.804,5.94 38.194,5.736C37.928,5.642 37.662,5.535 37.396,5.414C37.129,5.292 36.891,5.14 36.68,4.956C36.468,4.772 36.296,4.549 36.163,4.287C36.03,4.025 35.963,3.706 35.963,3.33C35.963,2.954 36.034,2.616 36.175,2.315C36.316,2.013 36.515,1.757 36.773,1.546C37.032,1.335 37.345,1.172 37.712,1.059C38.08,0.945 38.495,0.889 38.957,0.889C39.504,0.889 39.978,0.947 40.377,1.065C40.776,1.182 41.105,1.311 41.363,1.452L40.835,2.896C40.608,2.778 40.355,2.675 40.078,2.585C39.8,2.495 39.465,2.45 39.074,2.45C38.636,2.45 38.321,2.51 38.129,2.632C37.937,2.753 37.842,2.939 37.842,3.189C37.842,3.338 37.877,3.463 37.947,3.565C38.018,3.667 38.117,3.759 38.247,3.841C38.376,3.923 38.524,3.997 38.693,4.064C38.861,4.13 39.047,4.199 39.25,4.269C39.673,4.426 40.04,4.58 40.354,4.733C40.667,4.885 40.927,5.063 41.134,5.267C41.341,5.47 41.496,5.709 41.598,5.983C41.699,6.257 41.75,6.589 41.75,6.981C41.75,7.74 41.484,8.329 40.952,8.747C40.42,9.166 39.618,9.375 38.546,9.375C38.186,9.375 37.861,9.354 37.572,9.311C37.282,9.268 37.026,9.215 36.803,9.152C36.58,9.09 36.388,9.023 36.228,8.953C36.067,8.882 35.932,8.816 35.823,8.753L36.339,7.298C36.582,7.431 36.881,7.55 37.237,7.656C37.593,7.761 38.029,7.814 38.546,7.814Z" style="fill:white;fill-rule:nonzero;"/>
        </g>
    </g>
</svg>
