<?xml version="1.0" encoding="UTF-8" standalone="no"?>
<svg preserveAspectRation="xMidYMid meet" viewBox="0 0 156 48" version="1.1" xmlns="http://www.w3.org/2000/svg" xmlns:xlink="http://www.w3.org/1999/xlink" xmlns:sketch="http://www.bohemiancoding.com/sketch/ns">
    <title>SELFHTML Forum Logo</title>
    <description>Logo des SELFHTML-Forums in klein</description>
    <defs></defs>
    <g id="Page-1" stroke="none" stroke-width="1" fill="none" fill-rule="evenodd" sketch:type="MSPage">
        <g id="selfhtml-forum-small" sketch:type="MSLayerGroup">
            <g id="Die-Energie-des-Verstehens" transform="translate(77.992040, 42.912038) rotate(0.000000) translate(-77.992040, -42.912038) translate(-0.007960, 37.823331)" fill="#5C5C5C" sketch:type="MSShapeGroup">
                <path d="M153.837449,7.48754325 C154.23962,7.48754325 154.535957,7.43462775 154.729986,7.32879675 C154.924016,7.2247296 155.021031,7.0554 155.021031,6.8225718 C155.021031,6.5826882 154.92578,6.3921924 154.735278,6.25284825 C154.544776,6.11174025 154.232564,5.95299375 153.795115,5.77660875 C153.583446,5.69194395 153.382361,5.6055153 153.188331,5.5173228 C152.994301,5.43089415 152.82673,5.326827 152.685617,5.2068852 C152.544505,5.0869434 152.433379,4.9423077 152.348711,4.7729781 C152.264043,4.60541235 152.22171,4.39727805 152.22171,4.15033905 C152.22171,3.6652803 152.401628,3.27899715 152.759701,2.99325345 C153.119539,2.7092736 153.608141,2.56640175 154.229037,2.56640175 C154.382497,2.56640175 154.53772,2.575221 154.692944,2.5928595 C154.848168,2.610498 154.992809,2.6316642 155.126866,2.6563581 C155.259159,2.681052 155.377341,2.70750975 155.479647,2.73573135 C155.581954,2.76395295 155.66133,2.78864685 155.717775,2.80981305 L155.537856,3.6546972 C155.432022,3.598254 155.266214,3.54004695 155.042198,3.48007605 C154.816418,3.42010515 154.544776,3.3901197 154.229037,3.3901197 C153.953867,3.3901197 153.713976,3.44479905 153.509362,3.55415775 C153.306513,3.66351645 153.204206,3.83284605 153.204206,4.06567425 C153.204206,4.18561605 153.227137,4.29144705 153.272999,4.38316725 C153.31886,4.47488745 153.389417,4.5577884 153.482904,4.63010625 C153.578155,4.70418795 153.696336,4.7729781 153.837449,4.8364767 C153.978562,4.8999753 154.147897,4.9670016 154.343691,5.0375556 C154.604749,5.1363312 154.837585,5.23334295 155.042198,5.32859085 C155.245047,5.42383875 155.419674,5.53319745 155.564315,5.66019465 C155.708955,5.78719185 155.820081,5.9406468 155.897693,6.1205595 C155.975305,6.3004722 156.014111,6.5191896 156.014111,6.7802394 C156.014111,7.28646435 155.825373,7.67098365 155.447897,7.93203345 C155.072185,8.1913194 154.534193,8.3218443 153.837449,8.3218443 C153.352374,8.3218443 152.97137,8.28127575 152.696201,8.20013865 C152.422795,8.1207654 152.235821,8.05903065 152.137042,8.01669825 L152.316961,7.1718141 C152.429851,7.2141465 152.608005,7.27588125 152.854953,7.36054605 C153.1019,7.44521085 153.428223,7.48754325 153.837449,7.48754325 L153.837449,7.48754325 Z M114.745726,7.48754325 C115.147897,7.48754325 115.445997,7.43462775 115.638263,7.32879675 C115.832293,7.2247296 115.929308,7.0554 115.929308,6.8225718 C115.929308,6.5826882 115.834057,6.3921924 115.643555,6.25284825 C115.454817,6.11174025 115.140841,5.95299375 114.703392,5.77660875 C114.493487,5.69194395 114.290638,5.6055153 114.096608,5.5173228 C113.902578,5.43089415 113.736771,5.326827 113.595658,5.2068852 C113.454545,5.0869434 113.341655,4.9423077 113.256988,4.7729781 C113.17232,4.60541235 113.129986,4.39727805 113.129986,4.15033905 C113.129986,3.6652803 113.309905,3.27899715 113.669742,2.99325345 C114.027815,2.7092736 114.518182,2.56640175 115.137313,2.56640175 C115.292537,2.56640175 115.447761,2.575221 115.601221,2.5928595 C115.756445,2.610498 115.901085,2.6316642 116.035142,2.6563581 C116.169199,2.681052 116.287381,2.70750975 116.389688,2.73573135 C116.490231,2.76395295 116.569607,2.78864685 116.626052,2.80981305 L116.446133,3.6546972 C116.342062,3.598254 116.176255,3.54004695 115.950475,3.48007605 C115.724695,3.42010515 115.454817,3.3901197 115.137313,3.3901197 C114.862144,3.3901197 114.622252,3.44479905 114.419403,3.55415775 C114.21479,3.66351645 114.112483,3.83284605 114.112483,4.06567425 C114.112483,4.18561605 114.135414,4.29144705 114.181275,4.38316725 C114.227137,4.47488745 114.297693,4.5577884 114.392944,4.63010625 C114.488195,4.70418795 114.606377,4.7729781 114.745726,4.8364767 C114.886839,4.8999753 115.056174,4.9670016 115.253731,5.0375556 C115.513026,5.1363312 115.745862,5.23334295 115.950475,5.32859085 C116.155088,5.42383875 116.329715,5.53319745 116.472592,5.66019465 C116.617232,5.78719185 116.728358,5.9406468 116.80597,6.1205595 C116.883582,6.3004722 116.922388,6.5191896 116.922388,6.7802394 C116.922388,7.28646435 116.73365,7.67098365 116.357938,7.93203345 C115.980461,8.1913194 115.444233,8.3218443 114.745726,8.3218443 C114.260651,8.3218443 113.879647,8.28127575 113.606242,8.20013865 C113.331072,8.1207654 113.144098,8.05903065 113.045319,8.01669825 L113.225237,7.1718141 C113.338128,7.2141465 113.518046,7.27588125 113.763229,7.36054605 C114.010176,7.44521085 114.338263,7.48754325 114.745726,7.48754325 L114.745726,7.48754325 Z M85.8793758,7.48754325 C86.2815468,7.48754325 86.5778833,7.43462775 86.7719132,7.32879675 C86.965943,7.2247296 87.0629579,7.0554 87.0629579,6.8225718 C87.0629579,6.5826882 86.9677069,6.3921924 86.7772049,6.25284825 C86.5867028,6.11174025 86.2744912,5.95299375 85.8370421,5.77660875 C85.6253731,5.69194395 85.4242877,5.6055153 85.2302578,5.5173228 C85.036228,5.43089415 84.8686567,5.326827 84.7275441,5.2068852 C84.5881954,5.0869434 84.4753053,4.9423077 84.3906377,4.7729781 C84.3059701,4.60541235 84.2636364,4.39727805 84.2636364,4.15033905 C84.2636364,3.6652803 84.443555,3.27899715 84.8016282,2.99325345 C85.1614654,2.7092736 85.6500678,2.56640175 86.2709634,2.56640175 C86.4244233,2.56640175 86.5796472,2.575221 86.7348711,2.5928595 C86.890095,2.610498 87.0347354,2.6316642 87.1687924,2.6563581 C87.3010855,2.681052 87.4192673,2.70750975 87.5215739,2.73573135 C87.6238806,2.76395295 87.7032564,2.78864685 87.7597015,2.80981305 L87.5797829,3.6546972 C87.4739484,3.598254 87.3081411,3.54004695 87.0841248,3.48007605 C86.8583446,3.42010515 86.5867028,3.3901197 86.2709634,3.3901197 C85.9957938,3.3901197 85.7559023,3.44479905 85.551289,3.55415775 C85.3484396,3.66351645 85.246133,3.83284605 85.246133,4.06567425 C85.246133,4.18561605 85.2690638,4.29144705 85.3149254,4.38316725 C85.360787,4.47488745 85.4313433,4.5577884 85.5248304,4.63010625 C85.6200814,4.70418795 85.7382632,4.7729781 85.8793758,4.8364767 C86.0204885,4.8999753 86.1898236,4.9670016 86.3873813,5.0375556 C86.6466757,5.1363312 86.8795115,5.23334295 87.0841248,5.32859085 C87.2887381,5.42383875 87.4616011,5.53319745 87.6062415,5.66019465 C87.750882,5.78719185 87.8620081,5.9406468 87.9396201,6.1205595 C88.017232,6.3004722 88.056038,6.5191896 88.056038,6.7802394 C88.056038,7.28646435 87.8672999,7.67098365 87.4898236,7.93203345 C87.1141113,8.1913194 86.5761194,8.3218443 85.8793758,8.3218443 C85.3943012,8.3218443 85.0132972,8.28127575 84.7381275,8.20013865 C84.4647218,8.1207654 84.2777476,8.05903065 84.1789688,8.01669825 L84.3588874,7.1718141 C84.4717775,7.2141465 84.6499322,7.27588125 84.8968792,7.36054605 C85.1438263,7.44521085 85.4719132,7.48754325 85.8793758,7.48754325 L85.8793758,7.48754325 Z M73.9130258,0.1693296 L74.8955224,0 L74.8955224,8.03786445 C74.6697422,8.10136305 74.3804613,8.1630978 74.0294437,8.2265964 C73.6766621,8.290095 73.2709634,8.3218443 72.8141113,8.3218443 C72.3907734,8.3218443 72.0115332,8.254818 71.672863,8.12252925 C71.3359566,7.98847665 71.0466757,7.79798085 70.8067843,7.55104185 C70.5668928,7.30410285 70.3834464,7.00424835 70.2529172,6.64795065 C70.1223881,6.2934168 70.0571235,5.89302285 70.0571235,5.4502965 C70.0571235,5.0269725 70.1118046,4.6389255 70.2211669,4.28791935 C70.3305292,3.93514935 70.4910448,3.633531 70.7009498,3.3795366 C70.9126187,3.1255422 71.1719132,2.927991 71.4770692,2.78864685 C71.7839891,2.64753885 72.1350068,2.57698485 72.5283582,2.57698485 C72.8458616,2.57698485 73.1263229,2.61931725 73.3679783,2.70398205 C73.6113976,2.78864685 73.7930801,2.8680201 73.9130258,2.9456295 L73.9130258,0.1693296 L73.9130258,0.1693296 Z M6.01774763,4.53133065 C6.01774763,5.1645528 5.91932157,5.714874 5.72211669,6.1840581 C5.5249118,6.65147835 5.24674355,7.03952535 4.88761194,7.3446714 C4.52848033,7.6515813 4.09896879,7.8808818 3.59907734,8.0325729 C3.0990095,8.18250015 2.54990502,8.2583457 1.95123474,8.2583457 C1.6556038,8.2583457 1.32998643,8.24599875 0.974382632,8.22130485 C0.618778833,8.19661095 0.29651289,8.148987 0.0079375848,8.08019685 L0.0079375848,0.98246445 C0.29651289,0.91191045 0.618778833,0.8642865 0.974382632,0.8395926 C1.32998643,0.8148987 1.6556038,0.80255175 1.95123474,0.80255175 C2.54990502,0.80255175 3.0990095,0.8783973 3.59907734,1.0300884 C4.09896879,1.18001565 4.52848033,1.40931615 4.88761194,1.71622605 C5.24674355,2.0213721 5.5249118,2.4094191 5.72211669,2.87683935 C5.91932157,3.34602345 6.01774763,3.89634465 6.01774763,4.53133065 L6.01774763,4.53133065 Z M57.161194,8.1948471 L56.1786974,8.1948471 L56.1786974,2.70398205 L57.161194,2.70398205 L57.161194,8.1948471 L57.161194,8.1948471 Z M45.9116961,2.58756795 C45.9961872,2.58756795 46.0930258,2.5928595 46.2022117,2.6034426 C46.3113976,2.6140257 46.4186431,2.6281365 46.5243012,2.645775 C46.6299593,2.6634135 46.7267978,2.681052 46.8148168,2.6986905 C46.9028358,2.716329 46.967924,2.73220365 47.0102578,2.74631445 L46.8412754,3.6017817 C46.7636635,3.5735601 46.635251,3.54004695 46.4556852,3.50124225 C46.2761194,3.46243755 46.0455767,3.4430352 45.7638806,3.4430352 C45.580787,3.4430352 45.3994573,3.46243755 45.2198915,3.50124225 C45.0403256,3.54004695 44.9223202,3.5665047 44.8660516,3.5806155 L44.8660516,8.1948471 L43.8837313,8.1948471 L43.8837313,2.9350464 C44.1162144,2.8503816 44.4047897,2.7727722 44.74981,2.6986905 C45.0948304,2.6246088 45.4821845,2.58756795 45.9116961,2.58756795 L45.9116961,2.58756795 Z M29.8042198,2.8609647 C30.0294708,2.80628535 30.328806,2.74631445 30.7020488,2.68281585 C31.0751153,2.61931725 31.5048033,2.58756795 31.9905834,2.58756795 C32.4271506,2.58756795 32.78981,2.6493027 33.0785617,2.7727722 C33.367137,2.89447785 33.5978562,3.06733515 33.7703664,3.28958025 C33.9428765,3.51182535 34.0642334,3.77640285 34.1347897,4.08684045 C34.2051696,4.39727805 34.2402714,4.7377011 34.2402714,5.1116373 L34.2402714,8.1948471 L33.2581275,8.1948471 L33.2581275,5.3232993 C33.2581275,4.9846401 33.2351967,4.6953687 33.1893351,4.45724895 C33.1436499,4.21736535 33.0679783,4.02334185 32.9623202,3.87517845 C32.8566621,3.7287789 32.7159023,3.62118405 32.5398643,3.55415775 C32.3638263,3.48713145 32.1454545,3.4536183 31.8849254,3.4536183 C31.7792673,3.4536183 31.6702578,3.457146 31.5575441,3.4642014 C31.4448304,3.4712568 31.3374084,3.48007605 31.2354545,3.49065915 C31.1333243,3.50124225 31.0417775,3.5135892 30.9608141,3.5277 C30.8798507,3.5418108 30.8216418,3.5523939 30.78654,3.5594493 L30.78654,8.1948471 L29.8042198,8.1948471 L29.8042198,2.8609647 L29.8042198,2.8609647 Z M9.51398915,8.1948471 L8.53166893,8.1948471 L8.53166893,2.70398205 L9.51398915,2.70398205 L9.51398915,8.1948471 L9.51398915,8.1948471 Z M22.7801628,8.1948471 L22.7801628,0.87663345 L27.2481411,0.87663345 L27.2481411,1.7532669 L23.8048168,1.7532669 L23.8048168,3.92809395 L26.8678426,3.92809395 L26.8678426,4.7835612 L23.8048168,4.7835612 L23.8048168,7.31821365 L27.5121981,7.31821365 L27.5121981,8.1948471 L22.7801628,8.1948471 L22.7801628,8.1948471 Z M110.362415,2.58756795 C110.447083,2.58756795 110.544098,2.5928595 110.65346,2.6034426 C110.762822,2.6140257 110.870421,2.6281365 110.976255,2.645775 C111.08209,2.6634135 111.177341,2.681052 111.265536,2.6986905 C111.353731,2.716329 111.418996,2.73220365 111.46133,2.74631445 L111.291995,3.6017817 C111.214383,3.5735601 111.087381,3.54004695 110.907463,3.50124225 C110.727544,3.46243755 110.496472,3.4430352 110.216011,3.4430352 C110.032564,3.4430352 109.850882,3.46243755 109.670963,3.50124225 C109.491045,3.54004695 109.372863,3.5665047 109.318182,3.5806155 L109.318182,8.1948471 L108.335685,8.1948471 L108.335685,2.9350464 C108.566757,2.8503816 108.856038,2.7727722 109.201764,2.6986905 C109.545726,2.6246088 109.933786,2.58756795 110.362415,2.58756795 L110.362415,2.58756795 Z M145.441248,2.8609647 C145.665265,2.80628535 145.965129,2.74631445 146.339077,2.68281585 C146.711262,2.61931725 147.141655,2.58756795 147.62673,2.58756795 C148.064179,2.58756795 148.42578,2.6493027 148.715061,2.7727722 C149.004342,2.89447785 149.23365,3.06733515 149.406513,3.28958025 C149.579376,3.51182535 149.701085,3.77640285 149.771642,4.08684045 C149.842198,4.39727805 149.877476,4.7377011 149.877476,5.1116373 L149.877476,8.1948471 L148.89498,8.1948471 L148.89498,5.3232993 C148.89498,4.9846401 148.872049,4.6953687 148.826187,4.45724895 C148.780326,4.21736535 148.704478,4.02334185 148.598643,3.87517845 C148.492809,3.7287789 148.351696,3.62118405 148.175305,3.55415775 C148.000678,3.48713145 147.781954,3.4536183 147.520896,3.4536183 C147.415061,3.4536183 147.305699,3.457146 147.194573,3.4642014 C147.081682,3.4712568 146.974084,3.48007605 146.871777,3.49065915 C146.769471,3.50124225 146.677748,3.5135892 146.596608,3.5277 C146.515468,3.5418108 146.457259,3.5523939 146.421981,3.5594493 L146.421981,8.1948471 L145.441248,8.1948471 L145.441248,2.8609647 L145.441248,2.8609647 Z M52.4603799,7.64628975 C52.3758887,7.70273295 52.2121981,7.7750508 51.9691316,7.8632433 C51.7262415,7.9514358 51.4427815,7.99553205 51.1189281,7.99553205 C50.788019,7.99553205 50.4763365,7.94261655 50.1842334,7.83678555 C49.8919539,7.73095455 49.6367164,7.5669165 49.4183446,7.3446714 C49.2001493,7.12419015 49.0276391,6.8472657 48.9008141,6.5156619 C48.7741655,6.18582195 48.7106649,5.79071955 48.7106649,5.3338824 C48.7106649,4.9317246 48.7706377,4.5648438 48.8902307,4.2297123 C49.01,3.8945808 49.1842741,3.60707325 49.4130529,3.36366195 C49.6420081,3.12025065 49.9219403,2.92975485 50.2528494,2.7939384 C50.5837585,2.6563581 50.9570014,2.58756795 51.3724016,2.58756795 C51.8301357,2.58756795 52.2296608,2.6210811 52.5713297,2.6881074 C52.9128223,2.7551337 53.1996336,2.81686845 53.4321167,2.8715478 L53.4321167,7.77328695 C53.4321167,8.6181711 53.2137449,9.23022705 52.7771777,9.61121865 C52.3406106,9.9904464 51.6787924,10.1809422 50.7915468,10.1809422 C50.4465265,10.1809422 50.1207327,10.1527206 49.8145183,10.0962774 C49.5081275,10.0398342 49.2423066,9.9728079 49.0170556,9.89696235 L49.1966214,9.03973125 C49.3938263,9.11734065 49.6349525,9.1861308 49.9201764,9.2461017 C50.2052239,9.3060726 50.5027951,9.33605805 50.8125373,9.33605805 C51.3970963,9.33605805 51.8177883,9.21964395 52.0747897,8.9885796 C52.331791,8.7557514 52.4603799,8.3853429 52.4603799,7.87911795 L52.4603799,7.64628975 L52.4603799,7.64628975 Z M138.173948,5.4608796 C138.173948,4.974057 138.244505,4.550733 138.385617,4.1873799 C138.524966,3.8240268 138.71194,3.5241723 138.944776,3.2842887 C139.177612,3.0444051 139.443962,2.8644924 139.747354,2.74631445 C140.050746,2.62637265 140.35943,2.56640175 140.676934,2.56640175 C141.416011,2.56640175 141.982225,2.7974661 142.377341,3.25783095 C142.772456,3.71995965 142.96825,4.42197195 142.96825,5.3656317 L142.96825,5.5279059 C142.96825,5.5949322 142.964722,5.65666695 142.957666,5.71311015 L139.198779,5.71311015 C139.241113,6.28459755 139.405156,6.7167408 139.694437,7.0130676 C139.983718,7.30763055 140.433514,7.45579395 141.047354,7.45579395 C141.391316,7.45579395 141.682361,7.4258085 141.918725,7.3658376 C142.153324,7.3058667 142.331479,7.2494235 142.451425,7.1929803 L142.589009,8.01669825 C142.469064,8.08019685 142.259159,8.1454593 141.961058,8.2160133 C141.661194,8.2865673 141.32076,8.3218443 140.94152,8.3218443 C140.461737,8.3218443 140.048982,8.24952645 139.699729,8.1066546 C139.350475,7.9620189 139.064722,7.76270385 138.838942,7.50870945 C138.613161,7.2564789 138.44559,6.95486055 138.337992,6.60561825 C138.22863,6.2581398 138.173948,5.87538435 138.173948,5.4608796 L138.173948,5.4608796 Z M124.126187,5.4608796 C124.126187,4.974057 124.196744,4.550733 124.336092,4.1873799 C124.477205,3.8240268 124.664179,3.5241723 124.897015,3.2842887 C125.129851,3.0444051 125.396201,2.8644924 125.699593,2.74631445 C126.002985,2.62637265 126.311669,2.56640175 126.629172,2.56640175 C127.36825,2.56640175 127.934464,2.7974661 128.329579,3.25783095 C128.724695,3.71995965 128.920488,4.42197195 128.920488,5.3656317 L128.920488,5.5279059 C128.920488,5.5949322 128.916961,5.65666695 128.909905,5.71311015 L125.151018,5.71311015 C125.193351,6.28459755 125.357395,6.7167408 125.646676,7.0130676 C125.935957,7.30763055 126.385753,7.45579395 126.997829,7.45579395 C127.343555,7.45579395 127.6346,7.4258085 127.869199,7.3658376 C128.105563,7.3058667 128.283718,7.2494235 128.403664,7.1929803 L128.541248,8.01669825 C128.421303,8.08019685 128.211398,8.1454593 127.911533,8.2160133 C127.613433,8.2865673 127.272999,8.3218443 126.893758,8.3218443 C126.413976,8.3218443 126.001221,8.24952645 125.651967,8.1066546 C125.302714,7.9620189 125.016961,7.76270385 124.79118,7.50870945 C124.5654,7.2564789 124.397829,6.95486055 124.290231,6.60561825 C124.180868,6.2581398 124.126187,5.87538435 124.126187,5.4608796 L124.126187,5.4608796 Z M101.068385,5.4608796 C101.068385,4.974057 101.138942,4.550733 101.280054,4.1873799 C101.419403,3.8240268 101.606377,3.5241723 101.839213,3.2842887 C102.072049,3.0444051 102.338399,2.8644924 102.641791,2.74631445 C102.945183,2.62637265 103.253867,2.56640175 103.57137,2.56640175 C104.310448,2.56640175 104.878426,2.7974661 105.271777,3.25783095 C105.666893,3.71995965 105.862687,4.42197195 105.862687,5.3656317 L105.862687,5.5279059 C105.862687,5.5949322 105.859159,5.65666695 105.852103,5.71311015 L102.093216,5.71311015 C102.13555,6.28459755 102.299593,6.7167408 102.588874,7.0130676 C102.878155,7.30763055 103.327951,7.45579395 103.941791,7.45579395 C104.285753,7.45579395 104.576798,7.4258085 104.813161,7.3658376 C105.047761,7.3058667 105.225916,7.2494235 105.345862,7.1929803 L105.483446,8.01669825 C105.363501,8.08019685 105.153596,8.1454593 104.855495,8.2160133 C104.555631,8.2865673 104.215197,8.3218443 103.835957,8.3218443 C103.356174,8.3218443 102.943419,8.24952645 102.594166,8.1066546 C102.246676,7.9620189 101.959159,7.76270385 101.733379,7.50870945 C101.507598,7.2564789 101.341791,6.95486055 101.232429,6.60561825 C101.123066,6.2581398 101.068385,5.87538435 101.068385,5.4608796 L101.068385,5.4608796 Z M73.9130258,3.86459535 C73.7930801,3.76581975 73.6202171,3.6723357 73.3944369,3.5806155 C73.1686567,3.4888953 72.9234735,3.4430352 72.6553596,3.4430352 C72.3731343,3.4430352 72.1332429,3.49418685 71.9321574,3.59649015 C71.7310719,3.69879345 71.5670285,3.8381376 71.4400271,4.0180503 C71.3147897,4.197963 71.2230665,4.41138885 71.1666214,4.656564 C71.1101764,4.903503 71.0819539,5.1680805 71.0819539,5.4502965 C71.0819539,6.09057405 71.2407056,6.58445205 71.556445,6.93369435 C71.8739484,7.2811728 72.2955224,7.45579395 72.8246947,7.45579395 C73.0928087,7.45579395 73.3150611,7.443447 73.4949796,7.4187531 C73.6748982,7.3940592 73.8142469,7.36760145 73.9130258,7.33937985 L73.9130258,3.86459535 L73.9130258,3.86459535 Z M11.9538263,5.4608796 C11.9538263,4.974057 12.0242062,4.550733 12.1651425,4.1873799 C12.3059023,3.8240268 12.4925237,3.5241723 12.7248304,3.2842887 C12.9573134,3.0444051 13.2248982,2.8644924 13.5275848,2.74631445 C13.8304478,2.62637265 14.14019,2.56640175 14.4571642,2.56640175 C15.1964179,2.56640175 15.7633379,2.7974661 16.1577476,3.25783095 C16.551981,3.71995965 16.7491859,4.42197195 16.7491859,5.3656317 L16.7491859,5.5279059 C16.7491859,5.5949322 16.7456581,5.65666695 16.7386024,5.71311015 L12.9784803,5.71311015 C13.0206377,6.28459755 13.1860923,6.7167408 13.474844,7.0130676 C13.7635957,7.30763055 14.2142741,7.45579395 14.8268792,7.45579395 C15.1718996,7.45579395 15.4622388,7.4258085 15.6982497,7.3658376 C15.9340841,7.3058667 16.111886,7.2494235 16.2316554,7.1929803 L16.3688874,8.01669825 C16.249118,8.08019685 16.0397422,8.1454593 15.7404071,8.2160133 C15.4412483,8.2865673 15.1013433,8.3218443 14.7212212,8.3218443 C14.2423202,8.3218443 13.8286839,8.24952645 13.4801357,8.1066546 C13.1315875,7.9620189 12.8445997,7.76270385 12.6193487,7.50870945 C12.3939213,7.2564789 12.2267028,6.95486055 12.117517,6.60561825 C12.0083311,6.2581398 11.9538263,5.87538435 11.9538263,5.4608796 L11.9538263,5.4608796 Z M36.6169607,5.4608796 C36.6169607,4.974057 36.6873406,4.550733 36.8281004,4.1873799 C36.9688602,3.8240268 37.1554817,3.5241723 37.3879647,3.2842887 C37.6202714,3.0444051 37.8878562,2.8644924 38.1907191,2.74631445 C38.4934057,2.62637265 38.8033243,2.56640175 39.1201221,2.56640175 C39.8595522,2.56640175 40.4262958,2.7974661 40.8207056,3.25783095 C41.2149389,3.71995965 41.4121438,4.42197195 41.4121438,5.3656317 L41.4121438,5.5279059 C41.4121438,5.5949322 41.408616,5.65666695 41.4015604,5.71311015 L37.6414383,5.71311015 C37.6835957,6.28459755 37.8492266,6.7167408 38.1378019,7.0130676 C38.4265536,7.30763055 38.877232,7.45579395 39.4898372,7.45579395 C39.8348575,7.45579395 40.1253731,7.4258085 40.3612076,7.3658376 C40.5970421,7.3058667 40.774844,7.2494235 40.8946133,7.1929803 L41.0318453,8.01669825 C40.9122524,8.08019685 40.7027001,8.1454593 40.4035414,8.2160133 C40.1042062,8.2865673 39.7644776,8.3218443 39.3841791,8.3218443 C38.9054545,8.3218443 38.4916418,8.24952645 38.1430936,8.1066546 C37.7945455,7.9620189 37.5075577,7.76270385 37.2823066,7.50870945 C37.0568792,7.2564789 36.8896608,6.95486055 36.7806513,6.60561825 C36.6714654,6.2581398 36.6169607,5.87538435 36.6169607,5.4608796 L36.6169607,5.4608796 Z M59.6006784,5.4608796 C59.6006784,4.974057 59.6712347,4.550733 59.8123474,4.1873799 C59.9516961,3.8240268 60.1386703,3.5241723 60.3715061,3.2842887 C60.6043419,3.0444051 60.870692,2.8644924 61.1740841,2.74631445 C61.4774763,2.62637265 61.7861601,2.56640175 62.1036635,2.56640175 C62.8427408,2.56640175 63.4107191,2.7974661 63.8040706,3.25783095 C64.1991859,3.71995965 64.3949796,4.42197195 64.3949796,5.3656317 L64.3949796,5.5279059 C64.3949796,5.5949322 64.3914518,5.65666695 64.3843962,5.71311015 L60.6255088,5.71311015 C60.6678426,6.28459755 60.831886,6.7167408 61.1211669,7.0130676 C61.4104478,7.30763055 61.8602442,7.45579395 62.4740841,7.45579395 C62.8180461,7.45579395 63.1090909,7.4258085 63.3454545,7.3658376 C63.5800543,7.3058667 63.758209,7.2494235 63.8781547,7.1929803 L64.0157395,8.01669825 C63.8957938,8.08019685 63.6858887,8.1454593 63.3877883,8.2160133 C63.087924,8.2865673 62.7474898,8.3218443 62.3682497,8.3218443 C61.8884668,8.3218443 61.4757123,8.24952645 61.1264586,8.1066546 C60.7789688,7.9620189 60.4914518,7.76270385 60.2656716,7.50870945 C60.0398915,7.2564789 59.8740841,6.95486055 59.7647218,6.60561825 C59.6553596,6.2581398 59.6006784,5.87538435 59.6006784,5.4608796 L59.6006784,5.4608796 Z M77.3350068,5.4608796 C77.3350068,4.974057 77.4055631,4.550733 77.5466757,4.1873799 C77.6860244,3.8240268 77.8729986,3.5241723 78.1058345,3.2842887 C78.3386703,3.0444051 78.6050204,2.8644924 78.9084125,2.74631445 C79.2118046,2.62637265 79.5204885,2.56640175 79.8379919,2.56640175 C80.5770692,2.56640175 81.1432836,2.7974661 81.5383989,3.25783095 C81.9335142,3.71995965 82.129308,4.42197195 82.129308,5.3656317 L82.129308,5.5279059 C82.129308,5.5949322 82.1257802,5.65666695 82.1187246,5.71311015 L78.3598372,5.71311015 C78.402171,6.28459755 78.5662144,6.7167408 78.8554953,7.0130676 C79.1447761,7.30763055 79.5945726,7.45579395 80.2084125,7.45579395 C80.5523745,7.45579395 80.8434193,7.4258085 81.0797829,7.3658376 C81.3143826,7.3058667 81.4925373,7.2494235 81.612483,7.1929803 L81.7500678,8.01669825 C81.6301221,8.08019685 81.4202171,8.1454593 81.1203528,8.2160133 C80.8222524,8.2865673 80.4818182,8.3218443 80.102578,8.3218443 C79.6227951,8.3218443 79.2100407,8.24952645 78.860787,8.1066546 C78.5115332,7.9620189 78.2257802,7.76270385 78,7.50870945 C77.7742198,7.2564789 77.6066486,6.95486055 77.4990502,6.60561825 C77.3896879,6.2581398 77.3350068,5.87538435 77.3350068,5.4608796 L77.3350068,5.4608796 Z M120.153867,2.70398205 L122.235278,2.70398205 L122.235278,3.5277 L120.153867,3.5277 L120.153867,6.06235245 C120.153867,6.33751305 120.175034,6.56328585 120.217368,6.74319855 C120.259701,6.92311125 120.323202,7.06421925 120.40787,7.16652255 C120.492537,7.267062 120.598372,7.33937985 120.725373,7.38171225 C120.850611,7.42404465 120.998779,7.44521085 121.168114,7.44521085 C121.46445,7.44521085 121.700814,7.4116977 121.880733,7.3446714 C122.060651,7.2776451 122.185889,7.231785 122.256445,7.2035634 L122.446947,8.01669825 C122.348168,8.06608605 122.175305,8.1278208 121.928358,8.20013865 C121.683175,8.27422035 121.40095,8.3112612 121.083446,8.3112612 C120.711262,8.3112612 120.402578,8.26363725 120.159159,8.16838935 C119.917503,8.0749053 119.72171,7.93203345 119.573541,7.74153765 C119.425373,7.55104185 119.321303,7.3164498 119.26133,7.03952535 C119.201357,6.76083705 119.17137,6.4380525 119.17137,6.07293555 L119.17137,1.1711964 L120.153867,1.00363065 L120.153867,2.70398205 L120.153867,2.70398205 Z M2.03590231,7.36054605 C3.00763908,7.36054605 3.73278155,7.11360705 4.2116825,6.61620135 C4.69040706,6.1205595 4.92994573,5.4256026 4.92994573,4.53133065 C4.92994573,3.6370587 4.69040706,2.94033795 4.2116825,2.4446961 C3.73278155,1.94905425 3.00763908,1.7003514 2.03590231,1.7003514 C1.74715061,1.7003514 1.52348711,1.7038791 1.3650882,1.7109345 C1.20668928,1.7179899 1.09573948,1.7250453 1.0324152,1.7321007 L1.0324152,7.32879675 C1.09573948,7.33585215 1.20668928,7.34290755 1.3650882,7.34996295 C1.52348711,7.35701835 1.74715061,7.36054605 2.03590231,7.36054605 L2.03590231,7.36054605 Z M52.4497965,3.5700324 C52.351194,3.5418108 52.2192537,3.51535305 52.0537992,3.49065915 C51.8881682,3.46596525 51.6646811,3.4536183 51.3829851,3.4536183 C50.8548711,3.4536183 50.4482904,3.6264756 50.1630665,3.97042635 C49.8778426,4.31614095 49.7353189,4.7729781 49.7353189,5.3444655 C49.7353189,5.66019465 49.7757123,5.93182755 49.8566757,6.15760035 C49.9376391,6.3816093 50.046825,6.5685774 50.1842334,6.7167408 C50.3214654,6.8649042 50.4798643,6.9742629 50.6594301,7.0448169 C50.8389959,7.1153709 51.0238535,7.1506479 51.2140027,7.1506479 C51.4745319,7.1506479 51.7138942,7.11360705 51.9322659,7.03952535 C52.1504613,6.96544365 52.3229715,6.879015 52.4497965,6.7802394 L52.4497965,3.5700324 L52.4497965,3.5700324 Z M99.8424695,0.87663345 C99.5761194,1.6509636 99.3203528,2.3670867 99.0769335,3.02500275 C98.8335142,3.68468265 98.5971506,4.30908555 98.3643148,4.8999753 C98.131479,5.4926289 97.9004071,6.0570609 97.672863,6.59503515 C97.443555,7.13477325 97.2089552,7.66745595 96.9708277,8.1948471 L96.009498,8.1948471 C95.7696065,7.66745595 95.5350068,7.13477325 95.3056988,6.59503515 C95.0781547,6.0570609 94.8453189,5.4926289 94.6089552,4.8999753 C94.3725916,4.30908555 94.1327001,3.68468265 93.8857531,3.02500275 C93.638806,2.3670867 93.3865672,1.6509636 93.1255088,0.87663345 L94.2561737,0.87663345 C94.6354138,1.98785895 95.0093623,3.0585159 95.3744912,4.08684045 C95.741384,5.115165 96.1170963,6.07999095 96.505156,6.9813183 C96.8932157,6.08704635 97.2689281,5.12398425 97.6358209,4.092132 C98.0009498,3.06027975 98.3713704,1.98785895 98.7453189,0.87663345 L99.8424695,0.87663345 L99.8424695,0.87663345 Z M141.945183,4.9211415 C141.952239,4.47841515 141.841113,4.1132982 141.611805,3.8275545 C141.382497,3.54357465 141.068521,3.4007028 140.66635,3.4007028 C140.44057,3.4007028 140.241248,3.44479905 140.070149,3.53299155 C139.897286,3.62118405 139.750882,3.73407045 139.630936,3.87517845 C139.510991,4.01628645 139.417503,4.17856065 139.350475,4.36200105 C139.28521,4.54544145 139.241113,4.7306457 139.219946,4.9211415 L141.945183,4.9211415 L141.945183,4.9211415 Z M127.895658,4.9211415 C127.902714,4.47841515 127.793351,4.1132982 127.564043,3.8275545 C127.334735,3.54357465 127.018996,3.4007028 126.618589,3.4007028 C126.392809,3.4007028 126.193487,3.44479905 126.022388,3.53299155 C125.849525,3.62118405 125.703121,3.73407045 125.583175,3.87517845 C125.463229,4.01628645 125.369742,4.17856065 125.302714,4.36200105 C125.235685,4.54544145 125.193351,4.7306457 125.172185,4.9211415 L127.895658,4.9211415 L127.895658,4.9211415 Z M104.83962,4.9211415 C104.846676,4.47841515 104.73555,4.1132982 104.506242,3.8275545 C104.276934,3.54357465 103.962958,3.4007028 103.560787,3.4007028 C103.335007,3.4007028 103.137449,3.44479905 102.964586,3.53299155 C102.791723,3.62118405 102.645319,3.73407045 102.525373,3.87517845 C102.405427,4.01628645 102.31194,4.17856065 102.246676,4.36200105 C102.179647,4.54544145 102.13555,4.7306457 102.114383,4.9211415 L104.83962,4.9211415 L104.83962,4.9211415 Z M15.7245319,4.9211415 C15.7315875,4.47841515 15.6208141,4.1132982 15.3918589,3.8275545 C15.1630801,3.54357465 14.8478697,3.4007028 14.4465807,3.4007028 C14.2211533,3.4007028 14.0223609,3.44479905 13.8498507,3.53299155 C13.6773406,3.62118405 13.5311126,3.73407045 13.4115197,3.87517845 C13.2917503,4.01628645 13.1984396,4.17856065 13.1315875,4.36200105 C13.064559,4.54544145 13.0206377,4.7306457 12.9994708,4.9211415 L15.7245319,4.9211415 L15.7245319,4.9211415 Z M40.3876662,4.9211415 C40.3947218,4.47841515 40.283772,4.1132982 40.0549932,3.8275545 C39.826038,3.54357465 39.5110041,3.4007028 39.1095387,3.4007028 C38.8842877,3.4007028 38.6853189,3.44479905 38.5128087,3.53299155 C38.3402985,3.62118405 38.1942469,3.73407045 38.0744776,3.87517845 C37.9547083,4.01628645 37.8613976,4.17856065 37.7945455,4.36200105 C37.7276934,4.54544145 37.6835957,4.7306457 37.6626052,4.9211415 L40.3876662,4.9211415 L40.3876662,4.9211415 Z M63.3719132,4.9211415 C63.3789688,4.47841515 63.2678426,4.1132982 63.0385346,3.8275545 C62.8092266,3.54357465 62.495251,3.4007028 62.0930801,3.4007028 C61.8672999,3.4007028 61.6697422,3.44479905 61.4968792,3.53299155 C61.3240163,3.62118405 61.1776119,3.73407045 61.0576662,3.87517845 C60.9377205,4.01628645 60.8442334,4.17856065 60.7789688,4.36200105 C60.7119403,4.54544145 60.6678426,4.7306457 60.6466757,4.9211415 L63.3719132,4.9211415 L63.3719132,4.9211415 Z M81.1062415,4.9211415 C81.1132972,4.47841515 81.002171,4.1132982 80.772863,3.8275545 C80.543555,3.54357465 80.2295794,3.4007028 79.8274084,3.4007028 C79.6016282,3.4007028 79.4023066,3.44479905 79.2312076,3.53299155 C79.0583446,3.62118405 78.9119403,3.73407045 78.7919946,3.87517845 C78.6720488,4.01628645 78.5785617,4.17856065 78.5115332,4.36200105 C78.4462687,4.54544145 78.402171,4.7306457 78.3810041,4.9211415 L81.1062415,4.9211415 L81.1062415,4.9211415 Z M131.391723,8.1948471 L131.391723,0.1693296 L132.37422,0 L132.37422,2.80981305 C132.557666,2.73925905 132.75346,2.6845797 132.961601,2.645775 C133.167978,2.6069703 133.374355,2.58756795 133.578969,2.58756795 C134.016418,2.58756795 134.378019,2.6493027 134.6673,2.7727722 C134.954817,2.89447785 135.185889,3.06733515 135.358752,3.28958025 C135.531615,3.51182535 135.653324,3.77640285 135.723881,4.08684045 C135.794437,4.39727805 135.827951,4.7377011 135.827951,5.1116373 L135.827951,8.1948471 L134.847218,8.1948471 L134.847218,5.3232993 C134.847218,4.9846401 134.824288,4.6953687 134.778426,4.45724895 C134.732564,4.21736535 134.656716,4.02334185 134.550882,3.87517845 C134.445047,3.7287789 134.303935,3.62118405 134.127544,3.55415775 C133.952917,3.48713145 133.734193,3.4536183 133.473134,3.4536183 C133.3673,3.4536183 133.257938,3.4606737 133.146811,3.4747845 C133.033921,3.4888953 132.926323,3.50476995 132.824016,3.52240845 C132.72171,3.54004695 132.629986,3.5594493 132.548847,3.5806155 C132.467707,3.6017817 132.409498,3.6194202 132.37422,3.633531 L132.37422,8.1948471 L131.391723,8.1948471 L131.391723,8.1948471 Z M56.663772,1.7109345 C56.4873813,1.7109345 56.339213,1.65272745 56.2157395,1.53631335 C56.0922659,1.41989925 56.0305292,1.2629166 56.0305292,1.06712925 C56.0305292,0.86957805 56.0922659,0.7125954 56.2157395,0.5961813 C56.339213,0.4797672 56.4873813,0.42156015 56.663772,0.42156015 C56.8401628,0.42156015 56.990095,0.4797672 57.1135685,0.5961813 C57.2370421,0.7125954 57.2987788,0.86957805 57.2987788,1.06712925 C57.2987788,1.2629166 57.2370421,1.41989925 57.1135685,1.53631335 C56.990095,1.65272745 56.8401628,1.7109345 56.663772,1.7109345 L56.663772,1.7109345 Z M9.01744912,1.7109345 C8.84141113,1.7109345 8.69183175,1.65272745 8.56871099,1.53631335 C8.44541384,1.41989925 8.38385346,1.2629166 8.38385346,1.06712925 C8.38385346,0.86957805 8.44541384,0.7125954 8.56871099,0.5961813 C8.69183175,0.4797672 8.84141113,0.42156015 9.01744912,0.42156015 C9.19348711,0.42156015 9.34324288,0.4797672 9.46636364,0.5961813 C9.58966079,0.7125954 9.65122117,0.86957805 9.65122117,1.06712925 C9.65122117,1.2629166 9.58966079,1.41989925 9.46636364,1.53631335 C9.34324288,1.65272745 9.19348711,1.7109345 9.01744912,1.7109345 L9.01744912,1.7109345 Z" id="Shape"></path>
            </g>
            <g id="selfhtml" transform="translate(0.000939, 0.175737)" sketch:type="MSShapeGroup">
                <path d="M17.3127769,24.177996 C17.3127769,18.7276987 14.1488332,18.5083012 9.7984105,17.2342557 C9.22720703,17.0591226 6.94220069,16.4875342 6.59058723,16.0487391 C6.45875624,15.8716814 6.45875624,15.6965482 6.45875624,15.5214151 C6.45875624,14.0703119 7.33769366,14.2897095 8.52398011,14.2897095 C9.71065148,14.2897095 10.8530584,14.3339739 12.0395373,14.4667672 C12.7866438,14.5091071 13.5776297,14.6419003 14.3686156,14.6419003 C16.4338395,14.6419003 16.4779115,13.1484573 16.4779115,11.5218361 C16.4779115,9.54437122 15.5989741,9.10480629 13.7972197,8.9729753 C12.6986923,8.88521627 11.6001648,8.88521627 10.501445,8.88521627 C5.05249486,8.88521627 -0.00096227,8.92909578 -0.00096227,15.827417 C-0.00096227,17.367049 0.350651188,19.0798896 1.53693764,20.1788019 C3.55847446,22.0244358 10.1939035,22.9039505 10.6773479,23.5621432 C10.8971304,23.8700696 10.8530584,24.2646003 10.8530584,24.6167911 C10.8530584,25.8042323 10.105952,25.7599679 9.13925555,25.7599679 C7.68911466,25.7599679 6.23897377,25.6714391 4.78883288,25.5405703 C3.95396743,25.4520415 3.07503001,25.2326439 2.24016456,25.2326439 C0.702072192,25.2326439 0.482482178,26.4181606 0.482482178,27.6922061 L0.482482178,28.4408521 C0.482482178,30.0651639 0.482482178,30.6810167 2.15221308,30.9004142 C4.26150892,31.1640762 6.41487673,31.1640762 8.52398011,31.1640762 C14.0170022,31.1640762 17.3127769,30.3730903 17.3127769,24.177996 L17.3127769,24.177996 Z M72.5938413,2.99670123 L72.5938413,2.20571529 C72.5938413,1.81022232 72.5499617,1.37084984 72.3303717,1.01923638 C71.6271448,0.008467976 69.298259,0.008467976 68.243611,0.008467976 C65.2553778,0.008467976 62.1353135,0.184370932 60.2458002,2.77691877 C59.0593212,4.40296261 59.0154417,6.07269352 59.0154417,8.00627885 L59.0154417,9.54437122 C57.6971318,9.54437122 56.6422915,10.2912852 56.6422915,11.6975466 C56.6422915,13.6315168 56.598412,15.0806954 59.0154417,15.0806954 L59.0154417,28.1329257 C59.0154417,30.1536927 59.9821382,30.5924878 61.827772,30.5924878 C63.9370679,30.5924878 65.6508707,30.8138099 65.6508707,28.1329257 L65.6508707,15.0806954 L68.990525,15.0806954 C70.9679899,15.0806954 71.4953138,14.1588408 71.4953138,12.312822 C71.4953138,10.4231162 71.0559413,9.54437122 68.990525,9.54437122 L65.6508707,9.54437122 L65.6508707,8.00627885 C65.6508707,6.46818649 65.3433293,5.45761053 67.0571321,5.45761053 C67.7601666,5.45761053 68.5070806,5.50149004 69.2103075,5.63332103 C69.7376314,5.72127251 70.2210759,5.89698301 70.7922794,5.89698301 C72.4622027,5.89698301 72.5938413,4.27113162 72.5938413,2.99670123 L72.5938413,2.99670123 Z M51.9843273,28.1329257 L51.9843273,2.73303925 C51.9843273,1.37084984 51.1494618,0.360081434 49.7432005,0.360081434 L47.7657356,0.360081434 C46.1398842,0.360081434 45.3488983,1.0631159 45.3488983,2.73303925 L45.3488983,28.1329257 C45.3488983,30.1536927 46.3155947,30.5924878 48.1612286,30.5924878 L49.7432005,30.5924878 C51.3251724,30.5924878 51.9843273,29.6263688 51.9843273,28.1329257 L51.9843273,28.1329257 Z M40.3832002,19.0356251 C40.3832002,12.312822 38.3618558,8.88521627 31.1111514,8.88521627 C22.93763,8.88521627 21.2238271,12.7521945 21.2238271,20.1788019 C21.2238271,27.7364705 23.333123,31.1640762 31.3309338,31.1640762 C33.4402297,31.1640762 36.0327775,30.9889431 38.0543143,30.5924878 C39.5042628,30.286486 40.0756587,29.7148976 40.0756587,28.21953 C40.0756587,26.9454845 39.9438277,25.2326439 38.2739043,25.2326439 C37.9224833,25.2326439 37.4829184,25.3635127 37.1313049,25.4520415 C35.2417916,25.8465722 33.3083987,26.198763 31.3748133,26.198763 C28.7381935,26.198763 27.6835456,25.4520415 27.6835456,22.7711573 L27.6835456,22.0687002 L38.0102424,22.0687002 C40.3393207,22.0687002 40.3832002,21.2334498 40.3832002,19.0356251 L40.3832002,19.0356251 Z M34.0993846,17.7173152 L27.7274251,17.7173152 C27.7714971,15.1249599 28.3427006,13.8509144 31.1550309,13.8509144 C33.4402297,13.8509144 34.0993846,14.4225028 34.0993846,16.6626673 L34.0993846,17.7173152 L34.0993846,17.7173152 Z" id="Shape" fill="#3983AB"></path>
                <path d="M155.999363,28.6159853 L155.999363,2.24959481 C155.999363,1.15106737 155.427775,0.360081434 154.284598,0.360081434 L152.308096,0.360081434 C150.945521,0.360081434 150.373933,0.843525882 150.373933,2.24959481 L150.373933,28.6159853 C150.373933,30.3730903 151.120654,30.5924878 152.702626,30.5924878 L154.284598,30.5924878 C155.647173,30.5924878 155.999363,29.8457663 155.999363,28.6159853 L155.999363,28.6159853 Z M144.792767,28.6602497 L144.792767,15.036431 C144.792767,11.6975466 143.474457,8.88521627 139.738925,8.88521627 C137.235098,8.88521627 135.037274,9.93986419 132.972242,11.2581741 C132.092727,9.63213025 130.55502,8.88521627 128.753651,8.88521627 C126.513486,8.88521627 124.490794,9.8080332 122.600896,10.9065606 C122.294894,10.0276232 122.117837,9.54437122 121.107453,9.54437122 L119.130951,9.54437122 C117.768376,9.54437122 117.196788,10.0716952 117.196788,11.4338846 L117.196788,28.6602497 C117.196788,29.9785596 117.416185,30.5924878 118.867289,30.5924878 L121.107453,30.5924878 C122.470027,30.5924878 122.822218,29.8900307 122.822218,28.6602497 L122.822218,15.9159458 C123.919206,15.036431 125.76484,13.542988 127.215943,13.542988 C128.40146,13.542988 128.182062,16.576063 128.182062,17.2785201 L128.182062,28.6602497 C128.182062,30.4173547 128.973048,30.5924878 130.510756,30.5924878 C132.31405,30.5924878 133.807493,30.9889431 133.807493,28.6602497 L133.807493,15.9159458 C134.906405,15.036431 136.752039,13.542988 138.201217,13.542988 C139.388659,13.542988 139.169261,16.576063 139.169261,17.2785201 L139.169261,28.6602497 C139.169261,30.4173547 139.960247,30.5924878 141.497954,30.5924878 C143.299324,30.5924878 144.792767,30.9889431 144.792767,28.6602497 L144.792767,28.6602497 Z M107.002499,31.1198118 C101.904393,31.1198118 101.33319,28.7911184 101.33319,24.177996 L101.33319,14.1588408 L100.102639,14.1588408 C99.3116527,14.1588408 99.0479907,13.5872524 99.0479907,12.8840255 L99.0479907,10.9945121 C99.0479907,9.32458875 100.01488,9.54437122 101.33319,9.54437122 L101.33319,5.98493449 C101.33319,4.62255263 101.860513,4.05134915 103.222703,4.05134915 L105.200168,4.05134915 C106.342575,4.05134915 106.958235,4.88621461 106.958235,5.98493449 L106.958235,9.54437122 L111.263431,9.54437122 C113.197594,9.54437122 112.758799,10.8626811 112.758799,12.4885325 C112.758799,13.4121193 112.803063,14.1588408 111.704151,14.1588408 L106.958235,14.1588408 L106.958235,22.9905548 C106.958235,23.5178788 106.913971,25.7599679 107.221897,26.198763 C107.39703,26.462425 107.572163,26.5509538 107.88009,26.5509538 C108.476697,26.5509538 109.052135,26.3950661 109.627572,26.2372538 L109.737271,26.2045366 C110.312708,26.0467244 110.888146,25.8908366 111.484753,25.8908366 C113.022461,25.8908366 112.67027,27.6922061 112.67027,28.7045141 C112.67027,30.1979571 112.362343,30.7252811 110.824636,30.9004142 C109.560213,31.031283 108.29579,31.1198118 107.031368,31.1198118 L107.002499,31.1198118 L107.002499,31.1198118 Z M94.7855195,28.6159853 L94.7855195,15.1249599 C94.7855195,10.9065606 92.1050202,8.88521627 88.0182595,8.88521627 C85.9528432,8.88521627 83.9313064,9.50029926 82.085865,10.3792367 L82.085865,2.24959481 C82.085865,1.15106737 81.5144691,0.360081434 80.3720621,0.360081434 L78.3945973,0.360081434 C77.0322154,0.360081434 76.4610119,0.843525882 76.4610119,2.24959481 L76.4610119,28.8353828 C76.4610119,29.9342952 76.8565049,30.5924878 78.0429838,30.5924878 L80.3720621,30.5924878 C81.7342515,30.5924878 82.085865,29.8457663 82.085865,28.6159853 L82.085865,15.563755 C83.6678369,14.4667672 85.4693988,13.542988 87.4468636,13.542988 C87.8862361,13.542988 88.545391,13.542988 88.853125,13.8951788 C89.248618,14.3339739 89.1606665,16.7511962 89.1606665,17.367049 L89.1606665,28.6159853 C89.1606665,29.759162 89.4684004,30.5924878 90.7426384,30.5924878 L93.0717167,30.5924878 C94.4339061,30.5924878 94.7855195,29.8457663 94.7855195,28.6159853 L94.7855195,28.6159853 Z" id="Shape" fill="#DFAC20"></path>
            </g>
        </g>
    </g>
</svg>
