<?xml version="1.0" encoding="UTF-8"?>
<!DOCTYPE svg PUBLIC "-//W3C//DTD SVG 1.1//EN" "http://www.w3.org/Graphics/SVG/1.1/DTD/svg11.dtd">
<svg preserveAspectRation="xMidYMid meet" viewBox="0 0 160 178" version="1.1" xmlns="http://www.w3.org/2000/svg" xmlns:xlink="http://www.w3.org/1999/xlink" xml:space="preserve" style="fill-rule:evenodd;clip-rule:evenodd;stroke-linejoin:round;stroke-miterlimit:1.41421;">
    <g id="Die-Energie-des-Verstehens" transform="matrix(0.0176385,8.74477e-34,8.74477e-34,0.0176385,-118.426,-35.3614)">
        <path d="M15548.4,11830.5C15571.2,11830.5 15588,11827.5 15599,11821.5C15610,11815.6 15615.5,11806 15615.5,11792.8C15615.5,11779.2 15610.1,11768.4 15599.3,11760.5C15588.5,11752.5 15570.8,11743.5 15546,11733.5C15534,11728.7 15522.6,11723.8 15511.6,11718.8C15500.6,11713.9 15491.1,11708 15483.1,11701.2C15475.1,11694.4 15468.8,11686.2 15464,11676.6C15459.2,11667.1 15456.8,11655.3 15456.8,11641.3C15456.8,11613.8 15467,11591.9 15487.3,11575.7C15507.7,11559.6 15535.4,11551.5 15570.6,11551.5C15579.3,11551.5 15588.1,11552 15596.9,11553C15605.7,11554 15613.9,11555.2 15621.5,11556.6C15629,11558 15635.7,11559.5 15641.5,11561.1C15647.3,11562.7 15651.8,11564.1 15655,11565.3L15644.8,11613.2C15638.8,11610 15629.4,11606.7 15616.7,11603.3C15603.9,11599.9 15588.5,11598.2 15570.6,11598.2C15555,11598.2 15541.4,11601.3 15529.8,11607.5C15518.3,11613.7 15512.5,11623.3 15512.5,11636.5C15512.5,11643.3 15513.8,11649.3 15516.4,11654.5C15519,11659.7 15523,11664.4 15528.3,11668.5C15533.7,11672.7 15540.4,11676.6 15548.4,11680.2C15556.4,11683.8 15566,11687.6 15577.1,11691.6C15591.9,11697.2 15605.1,11702.7 15616.7,11708.1C15628.2,11713.5 15638.1,11719.7 15646.3,11726.9C15654.5,11734.1 15660.8,11742.8 15665.2,11753C15669.6,11763.2 15671.8,11775.6 15671.8,11790.4C15671.8,11819.1 15661.1,11840.9 15639.7,11855.7C15618.4,11870.4 15587.9,11877.8 15548.4,11877.8C15520.9,11877.8 15499.3,11875.5 15483.7,11870.9C15468.2,11866.4 15457.6,11862.9 15452,11860.5L15462.2,11812.6C15468.6,11815 15478.7,11818.5 15492.7,11823.3C15506.7,11828.1 15525.2,11830.5 15548.4,11830.5ZM13332.2,11830.5C13355,11830.5 13371.9,11827.5 13382.8,11821.5C13393.8,11815.6 13399.3,11806 13399.3,11792.8C13399.3,11779.2 13393.9,11768.4 13383.1,11760.5C13372.4,11752.5 13354.6,11743.5 13329.8,11733.5C13317.9,11728.7 13306.4,11723.8 13295.4,11718.8C13284.4,11713.9 13275,11708 13267,11701.2C13259,11694.4 13252.6,11686.2 13247.8,11676.6C13243,11667.1 13240.6,11655.3 13240.6,11641.3C13240.6,11613.8 13250.8,11591.9 13271.2,11575.7C13291.5,11559.6 13319.3,11551.5 13354.4,11551.5C13363.2,11551.5 13372,11552 13380.7,11553C13389.5,11554 13397.7,11555.2 13405.3,11556.6C13412.9,11558 13419.6,11559.5 13425.4,11561.1C13431.1,11562.7 13435.6,11564.1 13438.8,11565.3L13428.6,11613.2C13422.7,11610 13413.3,11606.7 13400.5,11603.3C13387.7,11599.9 13372.4,11598.2 13354.4,11598.2C13338.8,11598.2 13325.2,11601.3 13313.7,11607.5C13302.1,11613.7 13296.3,11623.3 13296.3,11636.5C13296.3,11643.3 13297.6,11649.3 13300.2,11654.5C13302.8,11659.7 13306.8,11664.4 13312.2,11668.5C13317.6,11672.7 13324.3,11676.6 13332.2,11680.2C13340.2,11683.8 13349.8,11687.6 13361,11691.6C13375.7,11697.2 13388.9,11702.7 13400.5,11708.1C13412.1,11713.5 13422,11719.7 13430.1,11726.9C13438.3,11734.1 13444.6,11742.8 13449,11753C13453.4,11763.2 13455.6,11775.6 13455.6,11790.4C13455.6,11819.1 13444.9,11840.9 13423.6,11855.7C13402.2,11870.4 13371.8,11877.8 13332.2,11877.8C13304.7,11877.8 13283.1,11875.5 13267.6,11870.9C13252,11866.4 13241.4,11862.9 13235.8,11860.5L13246,11812.6C13252.4,11815 13262.6,11818.5 13276.5,11823.3C13290.5,11828.1 13309.1,11830.5 13332.2,11830.5ZM11695.7,11830.5C11718.5,11830.5 11735.3,11827.5 11746.3,11821.5C11757.3,11815.6 11762.8,11806 11762.8,11792.8C11762.8,11779.2 11757.4,11768.4 11746.6,11760.5C11735.8,11752.5 11718.1,11743.5 11693.3,11733.5C11681.3,11728.7 11669.9,11723.8 11658.9,11718.8C11647.9,11713.9 11638.4,11708 11630.4,11701.2C11622.5,11694.4 11616.1,11686.2 11611.3,11676.6C11606.5,11667.1 11604.1,11655.3 11604.1,11641.3C11604.1,11613.8 11614.3,11591.9 11634.6,11575.7C11655,11559.6 11682.7,11551.5 11717.9,11551.5C11726.6,11551.5 11735.4,11552 11744.2,11553C11753,11554 11761.2,11555.2 11768.8,11556.6C11776.3,11558 11783,11559.5 11788.8,11561.1C11794.6,11562.7 11799.1,11564.1 11802.3,11565.3L11792.1,11613.2C11786.1,11610 11776.7,11606.7 11764,11603.3C11751.2,11599.9 11735.8,11598.2 11717.9,11598.2C11702.3,11598.2 11688.7,11601.3 11677.1,11607.5C11665.6,11613.7 11659.8,11623.3 11659.8,11636.5C11659.8,11643.3 11661.1,11649.3 11663.7,11654.5C11666.3,11659.7 11670.3,11664.4 11675.6,11668.5C11681,11672.7 11687.7,11676.6 11695.7,11680.2C11703.7,11683.8 11713.3,11687.6 11724.5,11691.6C11739.2,11697.2 11752.4,11702.7 11764,11708.1C11775.6,11713.5 11785.4,11719.7 11793.6,11726.9C11801.8,11734.1 11808.1,11742.8 11812.5,11753C11816.9,11763.2 11819.1,11775.6 11819.1,11790.4C11819.1,11819.1 11808.4,11840.9 11787,11855.7C11765.7,11870.4 11735.2,11877.8 11695.7,11877.8C11668.2,11877.8 11646.6,11875.5 11631,11870.9C11615.5,11866.4 11604.9,11862.9 11599.3,11860.5L11609.5,11812.6C11615.9,11815 11626,11818.5 11640,11823.3C11654,11828.1 11672.6,11830.5 11695.7,11830.5ZM11017.3,11415.6L11073,11406L11073,11861.7C11060.2,11865.3 11043.8,11868.8 11023.9,11872.4C11003.9,11876 10980.9,11877.8 10955,11877.8C10931,11877.8 10909.5,11874 10890.3,11866.5C10871.2,11858.9 10854.8,11848.1 10841.2,11834.1C10827.6,11820.1 10817.2,11803.1 10809.8,11782.9C10802.4,11762.8 10798.7,11740.1 10798.7,11715C10798.7,11691 10801.8,11669 10808,11649.1C10814.2,11629.1 10823.3,11612 10835.2,11597.6C10847.2,11583.2 10861.9,11572 10879.2,11564.1C10896.6,11556.1 10916.5,11552.1 10938.8,11552.1C10956.8,11552.1 10972.7,11554.5 10986.4,11559.3C11000.2,11564.1 11010.5,11568.6 11017.3,11573L11017.3,11415.6ZM7168.16,11662.9C7168.16,11698.8 7162.58,11730 7151.4,11756.6C7140.22,11783.1 7124.45,11805.1 7104.09,11822.4C7083.73,11839.8 7059.38,11852.8 7031.04,11861.4C7002.69,11869.9 6971.56,11874.2 6937.62,11874.2C6920.86,11874.2 6902.4,11873.5 6882.24,11872.1C6862.08,11870.7 6843.81,11868 6827.45,11864.1L6827.45,11461.7C6843.81,11457.7 6862.08,11455 6882.24,11453.6C6902.4,11452.2 6920.86,11451.5 6937.62,11451.5C6971.56,11451.5 7002.69,11455.8 7031.04,11464.4C7059.38,11472.9 7083.73,11485.9 7104.09,11503.3C7124.45,11520.6 7140.22,11542.6 7151.4,11569.1C7162.58,11595.7 7168.16,11626.9 7168.16,11662.9ZM10067.6,11870.6L10011.9,11870.6L10011.9,11559.3L10067.6,11559.3L10067.6,11870.6ZM9429.84,11552.7C9434.63,11552.7 9440.12,11553 9446.31,11553.6C9452.5,11554.2 9458.58,11555 9464.57,11556C9470.56,11557 9476.05,11558 9481.04,11559C9486.03,11560 9489.72,11560.9 9492.12,11561.7L9482.54,11610.2C9478.14,11608.6 9470.86,11606.7 9460.68,11604.5C9450.5,11602.3 9437.43,11601.2 9421.46,11601.2C9411.08,11601.2 9400.8,11602.3 9390.62,11604.5C9380.44,11606.7 9373.75,11608.2 9370.56,11609L9370.56,11870.6L9314.87,11870.6L9314.87,11572.4C9328.05,11567.6 9344.41,11563.2 9363.97,11559C9383.53,11554.8 9405.49,11552.7 9429.84,11552.7ZM8516.67,11568.2C8529.44,11565.1 8546.41,11561.7 8567.57,11558.1C8588.72,11554.5 8613.08,11552.7 8640.62,11552.7C8665.37,11552.7 8685.93,11556.2 8702.3,11563.2C8718.66,11570.1 8731.74,11579.9 8741.52,11592.5C8751.3,11605.1 8758.18,11620.1 8762.18,11637.7C8766.17,11655.3 8768.16,11674.6 8768.16,11695.8L8768.16,11870.6L8712.48,11870.6L8712.48,11707.8C8712.48,11688.6 8711.18,11672.2 8708.58,11658.7C8705.99,11645.1 8701.7,11634.1 8695.71,11625.7C8689.72,11617.4 8681.74,11611.3 8671.76,11607.5C8661.78,11603.7 8649.4,11601.8 8634.63,11601.8C8628.64,11601.8 8622.46,11602 8616.07,11602.4C8609.68,11602.8 8603.59,11603.3 8597.81,11603.9C8592.02,11604.5 8586.83,11605.2 8582.24,11606C8577.65,11606.8 8574.35,11607.4 8572.36,11607.8L8572.36,11870.6L8516.67,11870.6L8516.67,11568.2ZM7366.37,11870.6L7310.68,11870.6L7310.68,11559.3L7366.37,11559.3L7366.37,11870.6ZM8118.46,11870.6L8118.46,11455.7L8371.76,11455.7L8371.76,11505.4L8176.55,11505.4L8176.55,11628.7L8350.2,11628.7L8350.2,11677.2L8176.55,11677.2L8176.55,11820.9L8386.73,11820.9L8386.73,11870.6L8118.46,11870.6ZM13083.7,11552.7C13088.5,11552.7 13094,11553 13100.2,11553.6C13106.4,11554.2 13112.5,11555 13118.5,11556C13124.5,11557 13129.9,11558 13134.9,11559C13139.9,11560 13143.6,11560.9 13146,11561.7L13136.4,11610.2C13132,11608.6 13124.8,11606.7 13114.6,11604.5C13104.4,11602.3 13091.3,11601.2 13075.4,11601.2C13065,11601.2 13054.7,11602.3 13044.5,11604.5C13034.3,11606.7 13027.6,11608.2 13024.5,11609L13024.5,11870.6L12968.8,11870.6L12968.8,11572.4C12981.9,11567.6 12998.3,11563.2 13017.9,11559C13037.4,11554.8 13059.4,11552.7 13083.7,11552.7ZM15072.4,11568.2C15085.1,11565.1 15102.1,11561.7 15123.3,11558.1C15144.4,11554.5 15168.8,11552.7 15196.3,11552.7C15221.1,11552.7 15241.6,11556.2 15258,11563.2C15274.4,11570.1 15287.4,11579.9 15297.2,11592.5C15307,11605.1 15313.9,11620.1 15317.9,11637.7C15321.9,11655.3 15323.9,11674.6 15323.9,11695.8L15323.9,11870.6L15268.2,11870.6L15268.2,11707.8C15268.2,11688.6 15266.9,11672.2 15264.3,11658.7C15261.7,11645.1 15257.4,11634.1 15251.4,11625.7C15245.4,11617.4 15237.4,11611.3 15227.4,11607.5C15217.5,11603.7 15205.1,11601.8 15190.3,11601.8C15184.3,11601.8 15178.1,11602 15171.8,11602.4C15165.4,11602.8 15159.3,11603.3 15153.5,11603.9C15147.7,11604.5 15142.5,11605.2 15137.9,11606C15133.3,11606.8 15130,11607.4 15128,11607.8L15128,11870.6L15072.4,11870.6L15072.4,11568.2ZM9801.1,11839.5C9796.31,11842.7 9787.03,11846.8 9773.25,11851.8C9759.48,11856.8 9743.41,11859.3 9725.05,11859.3C9706.29,11859.3 9688.62,11856.3 9672.06,11850.3C9655.49,11844.3 9641.02,11835 9628.64,11822.4C9616.27,11809.9 9606.49,11794.2 9599.3,11775.4C9592.12,11756.7 9588.52,11734.3 9588.52,11708.4C9588.52,11685.6 9591.92,11664.8 9598.7,11645.8C9605.49,11626.8 9615.37,11610.5 9628.34,11596.7C9641.32,11582.9 9657.19,11572.1 9675.95,11564.4C9694.71,11556.6 9715.87,11552.7 9739.42,11552.7C9765.37,11552.7 9788.02,11554.6 9807.39,11558.4C9826.75,11562.2 9843.01,11565.7 9856.19,11568.8L9856.19,11846.7C9856.19,11894.6 9843.81,11929.3 9819.06,11950.9C9794.31,11972.4 9756.79,11983.2 9706.49,11983.2C9686.93,11983.2 9668.46,11981.6 9651.1,11978.4C9633.73,11975.2 9618.66,11971.4 9605.89,11967.1L9616.07,11918.5C9627.25,11922.9 9640.92,11926.8 9657.09,11930.2C9673.25,11933.6 9690.12,11935.3 9707.68,11935.3C9740.82,11935.3 9764.67,11928.7 9779.24,11915.6C9793.81,11902.4 9801.1,11881.4 9801.1,11852.7L9801.1,11839.5ZM14660.4,11715.6C14660.4,11688 14664.4,11664 14672.4,11643.4C14680.3,11622.8 14690.9,11605.8 14704.1,11592.2C14717.3,11578.6 14732.4,11568.4 14749.6,11561.7C14766.8,11554.9 14784.3,11551.5 14802.3,11551.5C14844.2,11551.5 14876.3,11564.6 14898.7,11590.7C14921.1,11616.9 14932.2,11656.7 14932.2,11710.2C14932.2,11712.6 14932.2,11715.7 14932.2,11719.4C14932.2,11723.2 14932,11726.7 14931.6,11729.9L14718.5,11729.9C14720.9,11762.3 14730.2,11786.8 14746.6,11803.6C14763,11820.3 14788.5,11828.7 14823.3,11828.7C14842.8,11828.7 14859.3,11827 14872.7,11823.6C14886,11820.2 14896.1,11817 14902.9,11813.8L14910.7,11860.5C14903.9,11864.1 14892,11867.8 14875.1,11871.8C14858.1,11875.8 14838.8,11877.8 14817.3,11877.8C14790.1,11877.8 14766.7,11873.7 14746.9,11865.6C14727.1,11857.4 14710.9,11846.1 14698.1,11831.7C14685.3,11817.4 14675.8,11800.3 14669.7,11780.5C14663.5,11760.8 14660.4,11739.1 14660.4,11715.6ZM13864,11715.6C13864,11688 13868,11664 13875.9,11643.4C13883.9,11622.8 13894.5,11605.8 13907.7,11592.2C13920.9,11578.6 13936,11568.4 13953.2,11561.7C13970.4,11554.9 13987.9,11551.5 14005.9,11551.5C14047.8,11551.5 14079.9,11564.6 14102.3,11590.7C14124.7,11616.9 14135.8,11656.7 14135.8,11710.2C14135.8,11712.6 14135.8,11715.7 14135.8,11719.4C14135.8,11723.2 14135.6,11726.7 14135.2,11729.9L13922.1,11729.9C13924.5,11762.3 13933.8,11786.8 13950.2,11803.6C13966.6,11820.3 13992.1,11828.7 14026.8,11828.7C14046.4,11828.7 14062.9,11827 14076.2,11823.6C14089.6,11820.2 14099.7,11817 14106.5,11813.8L14114.3,11860.5C14107.5,11864.1 14095.6,11867.8 14078.6,11871.8C14061.7,11875.8 14042.4,11877.8 14020.9,11877.8C13993.7,11877.8 13970.3,11873.7 13950.5,11865.6C13930.7,11857.4 13914.5,11846.1 13901.7,11831.7C13888.9,11817.4 13879.4,11800.3 13873.3,11780.5C13867.1,11760.8 13864,11739.1 13864,11715.6ZM12556.8,11715.6C12556.8,11688 12560.8,11664 12568.8,11643.4C12576.7,11622.8 12587.3,11605.8 12600.5,11592.2C12613.7,11578.6 12628.8,11568.4 12646,11561.7C12663.2,11554.9 12680.7,11551.5 12698.7,11551.5C12740.6,11551.5 12772.8,11564.6 12795.1,11590.7C12817.5,11616.9 12828.6,11656.7 12828.6,11710.2C12828.6,11712.6 12828.6,11715.7 12828.6,11719.4C12828.6,11723.2 12828.4,11726.7 12828,11729.9L12614.9,11729.9C12617.3,11762.3 12626.6,11786.8 12643,11803.6C12659.4,11820.3 12684.9,11828.7 12719.7,11828.7C12739.2,11828.7 12755.7,11827 12769.1,11823.6C12782.4,11820.2 12792.5,11817 12799.3,11813.8L12807.1,11860.5C12800.3,11864.1 12788.4,11867.8 12771.5,11871.8C12754.5,11875.8 12735.2,11877.8 12713.7,11877.8C12686.5,11877.8 12663.1,11873.7 12643.3,11865.6C12623.6,11857.4 12607.3,11846.1 12594.5,11831.7C12581.7,11817.4 12572.3,11800.3 12566.1,11780.5C12559.9,11760.8 12556.8,11739.1 12556.8,11715.6ZM11017.3,11625.1C11010.5,11619.5 11000.7,11614.2 10987.9,11609C10975.1,11603.8 10961.2,11601.2 10946,11601.2C10930,11601.2 10916.4,11604.1 10905,11609.9C10893.6,11615.7 10884.3,11623.6 10877.1,11633.8C10870,11644 10864.8,11656.1 10861.6,11670C10858.4,11684 10856.8,11699 10856.8,11715C10856.8,11751.3 10865.8,11779.3 10883.7,11799.1C10901.7,11818.8 10925.6,11828.7 10955.6,11828.7C10970.8,11828.7 10983.4,11828 10993.6,11826.6C11003.8,11825.2 11011.7,11823.7 11017.3,11822.1L11017.3,11625.1ZM7504.69,11715.6C7504.69,11688 7508.68,11664 7516.67,11643.4C7524.65,11622.8 7535.23,11605.8 7548.4,11592.2C7561.58,11578.6 7576.75,11568.4 7593.91,11561.7C7611.08,11554.9 7628.64,11551.5 7646.61,11551.5C7688.52,11551.5 7720.66,11564.6 7743.02,11590.7C7765.37,11616.9 7776.55,11656.7 7776.55,11710.2C7776.55,11712.6 7776.55,11715.7 7776.55,11719.4C7776.55,11723.2 7776.35,11726.7 7775.95,11729.9L7562.78,11729.9C7565.17,11762.3 7574.55,11786.8 7590.92,11803.6C7607.29,11820.3 7632.84,11828.7 7667.57,11828.7C7687.13,11828.7 7703.59,11827 7716.97,11823.6C7730.34,11820.2 7740.42,11817 7747.21,11813.8L7754.99,11860.5C7748.2,11864.1 7736.33,11867.8 7719.36,11871.8C7702.4,11875.8 7683.13,11877.8 7661.58,11877.8C7634.43,11877.8 7610.98,11873.7 7591.22,11865.6C7571.46,11857.4 7555.19,11846.1 7542.42,11831.7C7529.64,11817.4 7520.16,11800.3 7513.97,11780.5C7507.78,11760.8 7504.69,11739.1 7504.69,11715.6ZM8902.9,11715.6C8902.9,11688 8906.89,11664 8914.87,11643.4C8922.85,11622.8 8933.43,11605.8 8946.61,11592.2C8959.78,11578.6 8974.95,11568.4 8992.12,11561.7C9009.28,11554.9 9026.85,11551.5 9044.81,11551.5C9086.73,11551.5 9118.86,11564.6 9141.22,11590.7C9163.57,11616.9 9174.75,11656.7 9174.75,11710.2C9174.75,11712.6 9174.75,11715.7 9174.75,11719.4C9174.75,11723.2 9174.55,11726.7 9174.15,11729.9L8960.98,11729.9C8963.37,11762.3 8972.76,11786.8 8989.12,11803.6C9005.49,11820.3 9031.04,11828.7 9065.77,11828.7C9085.33,11828.7 9101.8,11827 9115.17,11823.6C9128.54,11820.2 9138.62,11817 9145.41,11813.8L9153.19,11860.5C9146.41,11864.1 9134.53,11867.8 9117.57,11871.8C9100.6,11875.8 9081.34,11877.8 9059.78,11877.8C9032.64,11877.8 9009.18,11873.7 8989.42,11865.6C8969.66,11857.4 8953.39,11846.1 8940.62,11831.7C8927.84,11817.4 8918.36,11800.3 8912.18,11780.5C8905.99,11760.8 8902.9,11739.1 8902.9,11715.6ZM10205.9,11715.6C10205.9,11688 10209.9,11664 10217.9,11643.4C10225.8,11622.8 10236.4,11605.8 10249.6,11592.2C10262.8,11578.6 10277.9,11568.4 10295.1,11561.7C10312.3,11554.9 10329.8,11551.5 10347.8,11551.5C10389.7,11551.5 10421.9,11564.6 10444.2,11590.7C10466.6,11616.9 10477.7,11656.7 10477.7,11710.2C10477.7,11712.6 10477.7,11715.7 10477.7,11719.4C10477.7,11723.2 10477.5,11726.7 10477.1,11729.9L10264,11729.9C10266.4,11762.3 10275.7,11786.8 10292.1,11803.6C10308.5,11820.3 10334,11828.7 10368.8,11828.7C10388.3,11828.7 10404.8,11827 10418.2,11823.6C10431.5,11820.2 10441.6,11817 10448.4,11813.8L10456.2,11860.5C10449.4,11864.1 10437.5,11867.8 10420.6,11871.8C10403.6,11875.8 10384.3,11877.8 10362.8,11877.8C10335.6,11877.8 10312.2,11873.7 10292.4,11865.6C10272.7,11857.4 10256.4,11846.1 10243.6,11831.7C10230.8,11817.4 10221.4,11800.3 10215.2,11780.5C10209,11760.8 10205.9,11739.1 10205.9,11715.6ZM11211.3,11715.6C11211.3,11688 11215.3,11664 11223.3,11643.4C11231.2,11622.8 11241.8,11605.8 11255,11592.2C11268.2,11578.6 11283.3,11568.4 11300.5,11561.7C11317.7,11554.9 11335.2,11551.5 11353.2,11551.5C11395.1,11551.5 11427.2,11564.6 11449.6,11590.7C11472,11616.9 11483.1,11656.7 11483.1,11710.2C11483.1,11712.6 11483.1,11715.7 11483.1,11719.4C11483.1,11723.2 11482.9,11726.7 11482.5,11729.9L11269.4,11729.9C11271.8,11762.3 11281.1,11786.8 11297.5,11803.6C11313.9,11820.3 11339.4,11828.7 11374.2,11828.7C11393.7,11828.7 11410.2,11827 11423.6,11823.6C11436.9,11820.2 11447,11817 11453.8,11813.8L11461.6,11860.5C11454.8,11864.1 11442.9,11867.8 11425.9,11871.8C11409,11875.8 11389.7,11877.8 11368.2,11877.8C11341,11877.8 11317.6,11873.7 11297.8,11865.6C11278,11857.4 11261.8,11846.1 11249,11831.7C11236.2,11817.4 11226.7,11800.3 11220.6,11780.5C11214.4,11760.8 11211.3,11739.1 11211.3,11715.6ZM13638.8,11559.3L13756.8,11559.3L13756.8,11606L13638.8,11606L13638.8,11749.7C13638.8,11765.3 13640,11778.1 13642.4,11788.3C13644.8,11798.5 13648.4,11806.5 13653.2,11812.3C13658,11818 13664,11822.1 13671.2,11824.5C13678.3,11826.9 13686.7,11828.1 13696.3,11828.1C13713.1,11828.1 13726.5,11826.2 13736.7,11822.4C13746.9,11818.6 13754,11816 13758,11814.4L13768.8,11860.5C13763.2,11863.3 13753.4,11866.8 13739.4,11870.9C13725.5,11875.1 13709.5,11877.2 13691.5,11877.2C13670.4,11877.2 13652.9,11874.5 13639.1,11869.1C13625.4,11863.8 13614.3,11855.7 13605.9,11844.9C13597.5,11834.1 13591.6,11820.8 13588.2,11805.1C13584.8,11789.3 13583.1,11771 13583.1,11750.3L13583.1,11472.4L13638.8,11462.9L13638.8,11559.3ZM6942.42,11823.3C6997.51,11823.3 7038.62,11809.3 7065.77,11781.1C7092.91,11753 7106.49,11713.6 7106.49,11662.9C7106.49,11612.2 7092.91,11572.7 7065.77,11544.6C7038.62,11516.5 6997.51,11502.4 6942.42,11502.4C6926.05,11502.4 6913.37,11502.6 6904.39,11503C6895.41,11503.4 6889.12,11503.8 6885.53,11504.2L6885.53,11821.5C6889.12,11821.9 6895.41,11822.3 6904.39,11822.7C6913.37,11823.1 6926.05,11823.3 6942.42,11823.3ZM9800.5,11608.4C9794.91,11606.8 9787.43,11605.3 9778.05,11603.9C9768.66,11602.5 9755.99,11601.8 9740.02,11601.8C9710.08,11601.8 9687.03,11611.6 9670.86,11631.1C9654.69,11650.7 9646.61,11676.6 9646.61,11709C9646.61,11726.9 9648.9,11742.3 9653.49,11755.1C9658.08,11767.8 9664.27,11778.4 9672.06,11786.8C9679.84,11795.2 9688.82,11801.4 9699,11805.4C9709.18,11809.4 9719.66,11811.4 9730.44,11811.4C9745.21,11811.4 9758.78,11809.3 9771.16,11805.1C9783.53,11800.9 9793.31,11796 9800.5,11790.4L9800.5,11608.4ZM12487.3,11455.7C12472.2,11499.6 12457.7,11540.2 12443.9,11577.5C12430.1,11614.9 12416.7,11650.3 12403.5,11683.8C12390.3,11717.4 12377.2,11749.4 12364.3,11779.9C12351.3,11810.5 12338,11840.7 12324.5,11870.6L12270,11870.6C12256.4,11840.7 12243.1,11810.5 12230.1,11779.9C12217.2,11749.4 12204,11717.4 12190.6,11683.8C12177.2,11650.3 12163.6,11614.9 12149.6,11577.5C12135.6,11540.2 12121.3,11499.6 12106.5,11455.7L12170.6,11455.7C12192.1,11518.7 12213.3,11579.4 12234,11637.7C12254.8,11696 12276.1,11750.7 12298.1,11801.8C12320.1,11751.1 12341.4,11696.5 12362.2,11638C12382.9,11579.5 12403.9,11518.7 12425.1,11455.7L12487.3,11455.7ZM14874.2,11685C14874.6,11659.9 14868.3,11639.2 14855.3,11623C14842.3,11606.9 14824.5,11598.8 14801.7,11598.8C14788.9,11598.8 14777.6,11601.3 14767.9,11606.3C14758.1,11611.3 14749.8,11617.7 14743,11625.7C14736.2,11633.7 14730.9,11642.9 14727.1,11653.3C14723.4,11663.7 14720.9,11674.2 14719.7,11685L14874.2,11685ZM14077.7,11685C14078.1,11659.9 14071.9,11639.2 14058.9,11623C14045.9,11606.9 14028,11598.8 14005.3,11598.8C13992.5,11598.8 13981.2,11601.3 13971.5,11606.3C13961.7,11611.3 13953.4,11617.7 13946.6,11625.7C13939.8,11633.7 13934.5,11642.9 13930.7,11653.3C13926.9,11663.7 13924.5,11674.2 13923.3,11685L14077.7,11685ZM12770.6,11685C12771,11659.9 12764.7,11639.2 12751.7,11623C12738.7,11606.9 12720.9,11598.8 12698.1,11598.8C12685.3,11598.8 12674.1,11601.3 12664.3,11606.3C12654.5,11611.3 12646.2,11617.7 12639.4,11625.7C12632.6,11633.7 12627.3,11642.9 12623.6,11653.3C12619.8,11663.7 12617.3,11674.2 12616.1,11685L12770.6,11685ZM7718.46,11685C7718.86,11659.9 7712.58,11639.2 7699.6,11623C7686.63,11606.9 7668.76,11598.8 7646.01,11598.8C7633.23,11598.8 7621.96,11601.3 7612.18,11606.3C7602.4,11611.3 7594.11,11617.7 7587.33,11625.7C7580.54,11633.7 7575.25,11642.9 7571.46,11653.3C7567.66,11663.7 7565.17,11674.2 7563.97,11685L7718.46,11685ZM9116.67,11685C9117.07,11659.9 9110.78,11639.2 9097.81,11623C9084.83,11606.9 9066.97,11598.8 9044.21,11598.8C9031.44,11598.8 9020.16,11601.3 9010.38,11606.3C9000.6,11611.3 8992.32,11617.7 8985.53,11625.7C8978.74,11633.7 8973.45,11642.9 8969.66,11653.3C8965.87,11663.7 8963.37,11674.2 8962.18,11685L9116.67,11685ZM10419.7,11685C10420.1,11659.9 10413.8,11639.2 10400.8,11623C10387.8,11606.9 10370,11598.8 10347.2,11598.8C10334.4,11598.8 10323.2,11601.3 10313.4,11606.3C10303.6,11611.3 10295.3,11617.7 10288.5,11625.7C10281.7,11633.7 10276.4,11642.9 10272.7,11653.3C10268.9,11663.7 10266.4,11674.2 10265.2,11685L10419.7,11685ZM11425.1,11685C11425.5,11659.9 11419.2,11639.2 11406.2,11623C11393.2,11606.9 11375.4,11598.8 11352.6,11598.8C11339.8,11598.8 11328.5,11601.3 11318.8,11606.3C11309,11611.3 11300.7,11617.7 11293.9,11625.7C11287.1,11633.7 11281.8,11642.9 11278,11653.3C11274.3,11663.7 11271.8,11674.2 11270.6,11685L11425.1,11685ZM14275.9,11870.6L14275.9,11415.6L14331.6,11406L14331.6,11565.3C14342,11561.3 14353.1,11558.2 14364.9,11556C14376.6,11553.8 14388.3,11552.7 14399.9,11552.7C14424.7,11552.7 14445.2,11556.2 14461.6,11563.2C14477.9,11570.1 14491,11579.9 14500.8,11592.5C14510.6,11605.1 14517.5,11620.1 14521.5,11637.7C14525.5,11655.3 14527.4,11674.6 14527.4,11695.8L14527.4,11870.6L14471.8,11870.6L14471.8,11707.8C14471.8,11688.6 14470.5,11672.2 14467.9,11658.7C14465.3,11645.1 14461,11634.1 14455,11625.7C14449,11617.4 14441,11611.3 14431,11607.5C14421.1,11603.7 14408.7,11601.8 14393.9,11601.8C14387.9,11601.8 14381.7,11602.2 14375.4,11603C14369,11603.8 14362.9,11604.7 14357.1,11605.7C14351.3,11606.7 14346.1,11607.8 14341.5,11609C14336.9,11610.2 14333.6,11611.2 14331.6,11612L14331.6,11870.6L14275.9,11870.6ZM10039.4,11503C10029.4,11503 10021,11499.7 10014,11493.1C10007,11486.5 10003.5,11477.6 10003.5,11466.5C10003.5,11455.3 10007,11446.4 10014,11439.8C10021,11433.2 10029.4,11429.9 10039.4,11429.9C10049.4,11429.9 10057.9,11433.2 10064.9,11439.8C10071.9,11446.4 10075.4,11455.3 10075.4,11466.5C10075.4,11477.6 10071.9,11486.5 10064.9,11493.1C10057.9,11499.7 10049.4,11503 10039.4,11503ZM7338.22,11503C7328.24,11503 7319.76,11499.7 7312.78,11493.1C7305.79,11486.5 7302.3,11477.6 7302.3,11466.5C7302.3,11455.3 7305.79,11446.4 7312.78,11439.8C7319.76,11433.2 7328.24,11429.9 7338.22,11429.9C7348.2,11429.9 7356.69,11433.2 7363.67,11439.8C7370.66,11446.4 7374.15,11455.3 7374.15,11466.5C7374.15,11477.6 7370.66,11486.5 7363.67,11493.1C7356.69,11499.7 7348.2,11503 7338.22,11503Z" style="fill:rgb(92,92,92);"/>
    </g>
    <g id="selfhtml" transform="matrix(0.0192454,0,0,0.0192454,-83.8143,-51.3646)">
        <path d="M5358.58,10585.3C5358.58,10302.1 5194.18,10290.7 4968.13,10224.5C4938.45,10215.4 4819.72,10185.7 4801.45,10162.9C4794.6,10153.7 4794.6,10144.6 4794.6,10135.5C4794.6,10060.1 4840.27,10071.5 4901.91,10071.5C4963.57,10071.5 5022.93,10073.8 5084.58,10080.7C5123.4,10082.9 5164.5,10089.8 5205.6,10089.8C5312.91,10089.8 5315.2,10012.2 5315.2,9927.68C5315.2,9824.93 5269.53,9802.09 5175.91,9795.24C5118.83,9790.68 5061.75,9790.68 5004.66,9790.68C4721.53,9790.68 4458.95,9792.96 4458.95,10151.4C4458.95,10231.4 4477.22,10320.4 4538.86,10377.5C4643.9,10473.4 4988.68,10519.1 5013.8,10553.3C5025.22,10569.3 5022.93,10589.8 5022.93,10608.1C5022.93,10669.8 4984.11,10667.5 4933.88,10667.5C4858.53,10667.5 4783.18,10662.9 4707.83,10656.1C4664.45,10651.5 4618.78,10640.1 4575.4,10640.1C4495.48,10640.1 4484.07,10701.7 4484.07,10767.9L4484.07,10806.8C4484.07,10891.2 4484.07,10923.2 4570.83,10934.6C4680.43,10948.3 4792.32,10948.3 4901.91,10948.3C5187.33,10948.3 5358.58,10907.2 5358.58,10585.3ZM8231.01,9484.71L8231.01,9443.61C8231.01,9423.06 8228.73,9400.23 8217.32,9381.96C8180.78,9329.44 8059.77,9329.44 8004.97,9329.44C7849.7,9329.44 7687.58,9338.58 7589.4,9473.29C7527.75,9557.78 7525.47,9644.54 7525.47,9745.01L7525.47,9824.93C7456.97,9824.93 7402.16,9863.74 7402.16,9936.81C7402.16,10037.3 7399.88,10112.6 7525.47,10112.6L7525.47,10790.8C7525.47,10895.8 7575.7,10918.6 7671.6,10918.6C7781.2,10918.6 7870.25,10930.1 7870.25,10790.8L7870.25,10112.6L8043.78,10112.6C8146.53,10112.6 8173.93,10064.7 8173.93,9968.78C8173.93,9870.59 8151.1,9824.93 8043.78,9824.93L7870.25,9824.93L7870.25,9745.01C7870.25,9665.09 7854.27,9612.58 7943.32,9612.58C7979.85,9612.58 8018.66,9614.86 8055.2,9621.71C8082.6,9626.28 8107.72,9635.41 8137.4,9635.41C8224.17,9635.41 8231.01,9550.93 8231.01,9484.71ZM7160.13,10790.8L7160.13,9471.01C7160.13,9400.23 7116.75,9347.71 7043.68,9347.71L6940.93,9347.71C6856.45,9347.71 6815.35,9384.24 6815.35,9471.01L6815.35,10790.8C6815.35,10895.8 6865.58,10918.6 6961.48,10918.6L7043.68,10918.6C7125.88,10918.6 7160.13,10868.4 7160.13,10790.8ZM6557.33,10318.1C6557.33,9968.78 6452.3,9790.68 6075.55,9790.68C5650.85,9790.68 5561.8,9991.61 5561.8,10377.5C5561.8,10770.2 5671.4,10948.3 6086.97,10948.3C6196.57,10948.3 6331.28,10939.2 6436.32,10918.6C6511.66,10902.7 6541.35,10873 6541.35,10795.3C6541.35,10729.1 6534.5,10640.1 6447.73,10640.1C6429.47,10640.1 6406.63,10646.9 6388.36,10651.5C6290.18,10672 6189.72,10690.3 6089.25,10690.3C5952.25,10690.3 5897.45,10651.5 5897.45,10512.2C5897.45,10498.5 5897.45,10487.1 5897.45,10475.7L6434.03,10475.7C6555.05,10475.7 6557.33,10432.3 6557.33,10318.1ZM6230.82,10249.6L5899.73,10249.6C5902.02,10114.9 5931.7,10048.7 6077.83,10048.7C6196.57,10048.7 6230.82,10078.4 6230.82,10194.8L6230.82,10249.6Z" style="fill:rgb(57,131,171);"/>
        <path d="M12564.8,10815.9L12564.8,9445.89C12564.8,9388.81 12535.1,9347.71 12475.7,9347.71L12373,9347.71C12302.2,9347.71 12272.5,9372.83 12272.5,9445.89L12272.5,10815.9C12272.5,10907.2 12311.3,10918.6 12393.5,10918.6L12475.7,10918.6C12546.5,10918.6 12564.8,10879.8 12564.8,10815.9ZM11982.5,10818.2L11982.5,10110.3C11982.5,9936.81 11914,9790.68 11719.9,9790.68C11589.8,9790.68 11475.6,9845.48 11368.3,9913.98C11322.6,9829.49 11242.7,9790.68 11149.1,9790.68C11032.7,9790.68 10927.6,9838.63 10829.4,9895.71C10813.5,9850.04 10804.3,9824.93 10751.8,9824.93L10649.1,9824.93C10578.3,9824.93 10548.6,9852.33 10548.6,9923.11L10548.6,10818.2C10548.6,10886.7 10560,10918.6 10635.4,10918.6L10751.8,10918.6C10822.6,10918.6 10840.9,10882.1 10840.9,10818.2L10840.9,10156C10897.9,10110.3 10993.8,10032.7 11069.2,10032.7C11130.8,10032.7 11119.4,10190.3 11119.4,10226.8L11119.4,10818.2C11119.4,10909.5 11160.5,10918.6 11240.4,10918.6C11334.1,10918.6 11411.7,10939.2 11411.7,10818.2L11411.7,10156C11468.8,10110.3 11564.7,10032.7 11640,10032.7C11701.7,10032.7 11690.3,10190.3 11690.3,10226.8L11690.3,10818.2C11690.3,10909.5 11731.4,10918.6 11811.3,10918.6C11904.9,10918.6 11982.5,10939.2 11982.5,10818.2ZM10018.9,10946C9754,10946 9724.32,10825 9724.32,10585.3L9724.32,10064.7L9660.38,10064.7C9619.28,10064.7 9605.58,10035 9605.58,9998.46L9605.58,9900.28C9605.58,9813.51 9655.82,9824.93 9724.32,9824.93L9724.32,9639.98C9724.32,9569.19 9751.72,9539.51 9822.5,9539.51L9925.25,9539.51C9984.61,9539.51 10016.6,9582.89 10016.6,9639.98L10016.6,9824.93L10240.3,9824.93C10340.8,9824.93 10318,9893.43 10318,9977.91C10318,10025.9 10320.3,10064.7 10263.2,10064.7L10016.6,10064.7L10016.6,10523.6C10016.6,10551 10014.3,10667.5 10030.3,10690.3C10039.4,10704 10048.5,10708.6 10064.5,10708.6C10095.5,10708.6 10125.4,10700.5 10155.3,10692.3L10161,10690.6C10190.9,10682.4 10220.8,10674.3 10251.8,10674.3C10331.7,10674.3 10313.4,10767.9 10313.4,10820.5C10313.4,10898.1 10297.4,10925.5 10217.5,10934.6C10151.8,10941.4 10086.1,10946 10020.4,10946L10018.9,10946ZM9384.1,10815.9L9384.1,10114.9C9384.1,9895.71 9244.82,9790.68 9032.47,9790.68C8925.15,9790.68 8820.11,9822.64 8724.22,9868.31L8724.22,9445.89C8724.22,9388.81 8694.53,9347.71 8635.17,9347.71L8532.42,9347.71C8461.63,9347.71 8431.95,9372.83 8431.95,9445.89L8431.95,10827.3C8431.95,10884.4 8452.5,10918.6 8514.15,10918.6L8635.17,10918.6C8705.95,10918.6 8724.22,10879.8 8724.22,10815.9L8724.22,10137.7C8806.42,10080.7 8900.03,10032.7 9002.78,10032.7C9025.61,10032.7 9059.86,10032.7 9075.85,10051C9096.4,10073.8 9091.83,10199.4 9091.83,10231.4L9091.83,10815.9C9091.83,10875.3 9107.82,10918.6 9174.03,10918.6L9295.05,10918.6C9365.83,10918.6 9384.1,10879.8 9384.1,10815.9Z" style="fill:rgb(223,172,32);"/>
    </g>
    <g id="s-Logo" transform="matrix(0.110352,0,0,0.110352,2,2)">
        <path d="M173.306,1024L63.784,1024C28.557,1024 0,995.443 0,960.216L0,63.784C0,28.557 28.557,0 63.784,0L303.81,0C184.695,34.62 103.505,116.049 103.505,307.614C103.505,381.42 120.375,463.662 177.311,516.381C274.314,604.949 592.737,647.124 615.933,678.755C626.477,693.516 624.368,712.495 624.368,729.365C624.368,786.302 588.519,784.193 542.127,784.193C472.538,784.193 402.948,779.976 333.359,773.649C293.293,769.432 251.118,758.888 211.051,758.888C137.245,758.888 126.701,815.824 126.701,876.978L126.701,912.827C126.701,977.993 126.701,1009.33 173.306,1024Z" style="fill:rgb(57,131,171);"/>
        <path d="M734.133,1024C862.024,991.811 934.356,909.356 934.356,708.278C934.356,446.792 782.525,436.248 573.758,375.094C546.344,366.659 436.689,339.245 419.819,318.157C413.492,309.722 413.492,301.287 413.492,292.852C413.492,223.263 455.667,233.807 512.604,233.807C569.54,233.807 624.368,235.916 681.305,242.242C717.154,244.351 755.111,250.677 793.069,250.677C892.181,250.677 894.289,178.979 894.289,100.955C894.289,47.577 880.945,17.552 853.286,0L960.216,0C995.443,0 1024,28.557 1024,63.784L1024,960.216C1024,995.443 995.443,1024 960.216,1024L734.133,1024Z" style="fill:rgb(223,172,32);"/>
    </g>
    <g id="forum" transform="matrix(-3.1121e-18,-0.0193524,0.0193524,-3.1121e-18,7.38807,415.953)">
        <path d="M19420.4,7706.8L19420.4,6772.71C19420.4,6706.48 19406.7,6706.48 19342.8,6706.48C19262.8,6706.48 19210.3,6683.64 19210.3,6772.71L19210.3,7478.42C19112.1,7556.07 19023,7631.44 18890.6,7631.44C18854,7631.44 18812.9,7626.87 18787.8,7597.18C18762.7,7565.21 18764.9,7425.89 18764.9,7387.07L18764.9,6772.71C18764.9,6706.48 18751.2,6706.48 18687.3,6706.48C18607.4,6706.48 18554.8,6683.64 18554.8,6772.71L18554.8,7510.39C18554.8,7709.09 18669,7805.01 18865.4,7805.01C19011.6,7805.01 19096.1,7752.48 19210.3,7670.26C19210.3,7709.09 19203.4,7768.47 19260.5,7768.47L19361,7768.47C19411.3,7768.47 19420.4,7759.33 19420.4,7706.8ZM17516.6,7236.33C17516.6,6902.89 17407,6672.22 17037,6672.22C16664.7,6672.22 16557.4,6898.32 16557.4,7236.33C16557.4,7572.06 16667,7798.16 17037,7798.16C17404.7,7798.16 17516.6,7569.77 17516.6,7236.33ZM21080.2,7702.24L21080.2,6964.55C21080.2,6816.1 21032.3,6669.94 20858.7,6669.94C20712.5,6669.94 20605.2,6738.45 20493.3,6820.67C20463.6,6722.47 20395.1,6669.94 20292.3,6669.94C20157.5,6669.94 20050.2,6729.32 19945.2,6806.97C19945.2,6768.14 19952,6706.48 19894.9,6706.48L19794.4,6706.48C19744.2,6706.48 19735,6715.61 19735,6768.14L19735,7702.24C19735,7770.75 19751,7768.47 19815,7768.47L19894.9,7768.47C19940.6,7768.47 19945.2,7743.35 19945.2,7702.24L19945.2,6994.24C20011.4,6941.72 20130.1,6843.51 20216.9,6843.51C20246.6,6843.51 20262.6,6852.65 20280.9,6877.77C20306,6912.03 20303.7,7046.77 20303.7,7087.88L20303.7,7702.24C20303.7,7768.47 20317.4,7768.47 20381.4,7768.47C20461.3,7768.47 20513.8,7791.31 20513.8,7702.24L20513.8,6994.24C20577.8,6941.72 20698.8,6843.51 20785.6,6843.51C20815.3,6843.51 20833.6,6854.93 20849.6,6877.77C20872.4,6909.74 20870.1,7049.06 20870.1,7087.88L20870.1,7702.24C20870.1,7770.75 20886.1,7768.47 20950,7768.47L21030,7768.47C21077.9,7768.47 21080.2,7745.63 21080.2,7702.24ZM18378.3,6816.1C18378.3,6759.01 18398.8,6692.78 18318.9,6692.78C18200.2,6692.78 18083.7,6747.59 17987.8,6816.1C17987.8,6774.99 17996.9,6706.48 17937.5,6706.48L17830.2,6706.48C17779.9,6706.48 17770.8,6717.9 17770.8,6768.14L17770.8,7702.24C17770.8,7770.75 17786.8,7768.47 17850.7,7768.47L17937.5,7768.47C17983.2,7768.47 17987.8,7743.35 17987.8,7702.24L17987.8,6985.11C18115.7,6902.89 18181.9,6886.9 18334.9,6886.9C18378.3,6886.9 18378.3,6850.36 18378.3,6816.1ZM17304.2,7236.33C17304.2,7323.12 17299.6,7453.3 17258.5,7530.95C17210.6,7622.3 17132.9,7624.59 17037,7624.59C16941.1,7624.59 16863.4,7624.59 16815.5,7530.95C16774.4,7451.01 16769.8,7325.4 16769.8,7236.33C16769.8,7147.26 16774.4,7021.65 16815.5,6941.72C16865.7,6848.08 16938.8,6845.79 17037,6845.79C17135.2,6845.79 17208.3,6848.08 17258.5,6941.72C17299.6,7021.65 17304.2,7147.26 17304.2,7236.33ZM16481.9,6277.12C16481.9,6265.7 16479.6,6251.99 16472.7,6245.14C16449.9,6220.02 16351.7,6224.59 16322,6224.59C16189.6,6224.59 16045.7,6229.15 15963.5,6347.91C15913.2,6421 15913.2,6510.07 15913.2,6596.86L15913.2,6706.48C15869.8,6706.48 15789.9,6692.78 15789.9,6759.01C15789.9,6886.9 15783,6873.2 15913.2,6873.2L15913.2,7702.24C15913.2,7770.75 15929.2,7768.47 15993.1,7768.47L16073.1,7768.47C16118.8,7768.47 16123.3,7743.35 16123.3,7702.24L16123.3,6873.2L16360.8,6873.2C16427.1,6873.2 16424.8,6852.65 16424.8,6790.98C16424.8,6731.6 16431.6,6706.48 16360.8,6706.48L16123.3,6706.48L16123.3,6596.86C16123.3,6560.31 16121,6452.97 16148.4,6425.57C16171.3,6402.73 16232.9,6400.44 16262.6,6400.44C16296.9,6400.44 16333.4,6402.73 16365.4,6409.58C16395.1,6414.15 16422.5,6423.28 16452.2,6423.28C16468.2,6423.28 16472.7,6414.15 16475,6400.44C16481.9,6361.62 16481.9,6315.94 16481.9,6277.12Z" style="fill:rgb(196,212,218);"/>
    </g>
</svg>
